<svg width="627" height="406" viewBox="0 0 627 406" fill="none" xmlns="http://www.w3.org/2000/svg">
<path d="M54 18L53.4 11.7C53.4 6.49999 62.8 3.89999 81.6 3.89999C93 3.89999 98.7 6.89999 98.7 12.9C98.7 16.7 91.3 40.9 76.5 85.5C61.7 129.9 54.3 154.3 54.3 158.7C54.3 163.1 56.3 165.3 60.3 165.3C63.5 165.3 65.9 164.5 67.5 162.9L70.5 159.9C70.9 159.5 71.7 158.7 72.9 157.5C74.1 156.1 75 155.1 75.6 154.5C83.6 146.5 100.5 125.2 126.3 90.6C152.3 55.8 169.6 29.9 178.2 12.9C180.4 8.49999 182.9 5.59999 185.7 4.2C190.7 1.79999 199.5 0.399995 212.1 0H218.1C228.5 0 233.7 1.7 233.7 5.09999C233.7 6.49999 232.8 8.1 231 9.9C211.8 28.5 181.4 61.3 139.8 108.3C98.4 155.3 73.4 186.2 64.8 201C61.8 206.2 59 210.1 56.4 212.7C53.8 215.3 49 217.6 42 219.6C35 221.8 26.2 222.9 15.6 222.9C5.2 222.9 0 220.5 0 215.7L0.900001 212.4C7.3 193.8 16.2 165.3 27.6 126.9C39 88.3 46.8 59.8 51 41.4C53 29.4 54 21.6 54 18Z" fill="white"/>
<path d="M135.877 233.1C133.077 233.1 129.977 231.3 126.577 227.7C123.177 224.3 121.477 220.1 121.477 215.1C121.477 212.3 127.977 198.2 140.977 172.8C154.177 147.2 160.977 129.9 161.377 120.9C161.377 118.1 163.177 115.5 166.777 113.1C173.177 109.3 182.677 107.4 195.277 107.4C197.677 107.4 200.177 107.9 202.777 108.9C205.577 109.7 206.977 110.9 206.977 112.5C206.977 113.3 206.677 114 206.077 114.6C198.477 124.2 187.377 141.5 172.777 166.5C158.177 191.5 147.177 211.8 139.777 227.4C138.777 231.2 137.477 233.1 135.877 233.1ZM201.577 90.6C192.777 90.6 188.177 87.1 187.777 80.1V79.8C187.777 73.8 190.677 68.9 196.477 65.1C202.477 61.3 208.377 59.4 214.177 59.4C222.977 59.4 227.577 62.9 227.977 69.9C227.977 75.9 225.077 80.9 219.277 84.9C213.477 88.7 207.577 90.6 201.577 90.6Z" fill="white"/>
<path d="M253.298 226.5C253.298 237.9 247.898 253.8 237.098 274.2C226.498 294.6 213.698 314.5 198.698 333.9C183.898 353.3 167.798 370.1 150.398 384.3C132.998 398.7 118.298 405.9 106.298 405.9C97.8984 405.9 93.6984 398.9 93.6984 384.9C93.6984 370.9 97.7984 355.3 105.998 338.1C114.198 321.1 124.098 305.4 135.698 291C147.098 276.8 159.298 264.7 172.298 254.7C185.298 244.7 196.198 239.7 204.998 239.7C207.998 239.7 209.498 240.4 209.498 241.8C209.498 243.2 208.298 244.5 205.898 245.7C198.298 249.7 188.598 258.2 176.798 271.2C165.198 284.4 154.698 299.4 145.298 316.2C135.698 333.2 130.898 347.5 130.898 359.1C130.898 364.1 132.698 366.6 136.298 366.6C143.698 366.6 154.598 358.9 168.998 343.5C183.198 328.1 196.098 309.9 207.698 288.9C219.298 268.1 225.098 251.1 225.098 237.9C225.098 228.7 222.698 221.5 217.898 216.3C213.298 210.9 206.498 208.2 197.498 208.2C190.898 208.2 185.398 208.8 180.998 210C176.598 211 173.898 211.5 172.898 211.5C172.098 211.5 171.698 210.7 171.698 209.1C171.698 207.3 171.698 206.1 171.698 205.5C171.898 204.7 172.298 203.4 172.898 201.6C173.698 199.8 174.498 198.1 175.298 196.5C176.298 194.9 177.698 193.3 179.498 191.7C181.498 189.9 183.698 188.6 186.098 187.8C188.498 187 191.598 185.9 195.398 184.5C199.198 183.1 205.898 180.3 215.498 176.1C225.298 171.7 233.898 167.4 241.298 163.2C248.898 158.8 255.698 153.7 261.698 147.9C267.898 141.9 270.998 136.4 270.998 131.4C270.998 124.4 263.198 120.9 247.598 120.9C240.798 120.9 234.298 121.8 228.098 123.6L218.498 126C217.098 126 216.398 125 216.398 123C216.398 118 221.898 113 232.898 108C243.898 103 256.698 100.5 271.298 100.5C276.698 100.5 282.798 101.4 289.598 103.2C302.598 106.4 309.098 112.1 309.098 120.3C309.098 127.1 304.898 134.5 296.498 142.5C288.098 150.5 278.798 157.4 268.598 163.2C241.598 178.2 228.098 187.3 228.098 190.5C228.098 192.3 229.398 194.1 231.998 195.9C234.598 197.5 237.498 199.2 240.698 201C243.898 202.6 246.798 205.6 249.398 210C251.998 214.4 253.298 219.9 253.298 226.5Z" fill="white"/>
<path d="M302.576 233.1C299.776 233.1 296.676 231.3 293.276 227.7C289.876 224.3 288.176 220.1 288.176 215.1C288.176 212.3 294.676 198.2 307.676 172.8C320.876 147.2 327.676 129.9 328.076 120.9C328.076 118.1 329.876 115.5 333.476 113.1C339.876 109.3 349.376 107.4 361.976 107.4C364.376 107.4 366.876 107.9 369.476 108.9C372.276 109.7 373.676 110.9 373.676 112.5C373.676 113.3 373.376 114 372.776 114.6C365.176 124.2 354.076 141.5 339.476 166.5C324.876 191.5 313.876 211.8 306.476 227.4C305.476 231.2 304.176 233.1 302.576 233.1ZM368.276 90.6C359.476 90.6 354.876 87.1 354.476 80.1V79.8C354.476 73.8 357.376 68.9 363.176 65.1C369.176 61.3 375.076 59.4 380.876 59.4C389.676 59.4 394.276 62.9 394.676 69.9C394.676 75.9 391.776 80.9 385.976 84.9C380.176 88.7 374.276 90.6 368.276 90.6Z" fill="white"/>
<path d="M362.147 221.7C357.547 219.5 353.747 215.6 350.747 210C347.947 204.4 346.547 197.5 346.547 189.3C346.547 176.5 350.647 163.1 358.847 149.1C367.247 135.1 378.947 123.1 393.947 113.1C409.147 103.1 425.147 98.1 441.947 98.1C449.747 98.1 456.247 100.2 461.447 104.4C466.647 108.6 469.247 112.8 469.247 117C469.247 121 468.647 124.2 467.447 126.6C466.247 129 465.647 130.6 465.647 131.4C465.647 133.8 467.547 135 471.347 135C475.147 135 478.047 134.5 480.047 133.5C482.047 132.5 483.247 132 483.647 132C485.247 132 486.047 134.1 486.047 138.3C486.047 142.3 484.047 147.1 480.047 152.7C476.047 158.1 471.147 162.1 465.347 164.7C464.547 166.3 463.447 168.6 462.047 171.6C460.647 174.4 457.347 179.4 452.147 186.6C446.947 193.6 441.347 199.9 435.347 205.5C429.547 210.9 421.747 215.8 411.947 220.2C402.347 224.8 393.547 227.1 385.547 227.1C377.547 227.1 369.747 225.3 362.147 221.7ZM429.047 170.1C429.047 168.5 428.147 167.7 426.347 167.7C423.747 167.7 420.747 168.3 417.347 169.5C414.147 170.7 412.347 171.3 411.947 171.3C410.747 171.3 410.147 170.4 410.147 168.6C410.147 160.8 412.947 154.1 418.547 148.5C420.747 146.1 423.947 144.1 428.147 142.5C432.347 140.7 435.547 138.7 437.747 136.5C440.147 134.1 441.347 130.1 441.347 124.5C441.347 117.7 437.747 114.3 430.547 114.3C417.747 114.3 405.547 123.4 393.947 141.6C382.347 159.6 376.547 175.7 376.547 189.9C376.547 194.7 378.147 198.8 381.347 202.2C384.747 205.6 388.747 207.3 393.347 207.3C403.747 207.3 412.247 203 418.847 194.4C425.647 185.6 429.047 177.5 429.047 170.1Z" fill="white"/>
<path d="M549.581 230.7C543.981 230.7 541.181 229.4 541.181 226.8L541.781 225C553.781 207 564.081 189.7 572.681 173.1C581.281 156.3 585.581 145.4 585.581 140.4C585.581 138.8 585.181 137.6 584.381 136.8C583.581 135.8 582.381 135.2 580.781 135C572.981 135 562.481 140 549.281 150C536.281 160 524.781 170.3 514.781 180.9C504.981 191.5 497.681 200.2 492.881 207C488.081 213.6 480.881 216.9 471.281 216.9C466.081 216.9 463.481 215.6 463.481 213C463.481 207.8 473.281 189.5 492.881 158.1C512.481 126.5 525.481 109.5 531.881 107.1C535.281 105.1 539.581 104.1 544.781 104.1C550.181 104.1 552.881 105.2 552.881 107.4C552.881 109.4 550.481 113.9 545.681 120.9C540.881 127.9 538.481 132.4 538.481 134.4C538.881 136 539.681 136.8 540.881 136.8C542.281 136.8 543.481 136.4 544.481 135.6C574.081 112.6 597.681 101.1 615.281 101.1C622.681 101.1 626.381 105.4 626.381 114C626.381 119.6 622.181 131.7 613.781 150.3C605.581 168.9 595.081 187 582.281 204.6C569.681 222 558.781 230.7 549.581 230.7Z" fill="white"/>
</svg>
