<svg width="500" height="647" viewBox="0 0 500 647" fill="none" xmlns="http://www.w3.org/2000/svg">
<g clip-path="url(#clip0_28_1275)">
<path d="M0 581.669C1.45691 587.351 6.37667 593.159 13.1265 594.614H33.5269L34.5675 595.025V646.503H47.3065V595.025L48.4638 594.614H68.8821C75.7073 592.856 80.5212 587.351 81.953 581.669V581.543H0V581.669Z" fill="#E82127"/>
<path d="M126.082 646.647H174.545C181.288 645.306 186.299 639.366 187.704 633.615H112.923C114.319 639.368 119.404 645.306 126.082 646.647Z" fill="#E82127"/>
<path d="M126.082 620.243H174.545C181.288 618.913 186.299 612.971 187.704 607.213H112.923C114.319 612.972 119.404 618.913 126.082 620.243Z" fill="#E82127"/>
<path d="M126.082 594.545H174.545C181.288 593.201 186.299 587.264 187.704 581.51H112.923C114.319 587.264 119.404 593.201 126.082 594.545Z" fill="#E82127"/>
<path d="M236.612 594.421H281.385C288.135 592.46 293.802 587.317 295.184 581.617H224.061V620.04H282.273V633.524L236.612 633.56C229.456 635.555 223.388 640.36 220.361 646.706L224.061 646.638H294.78V607.266H236.612V594.421Z" fill="#E82127"/>
<path d="M388.979 646.655C395.336 643.96 398.756 639.298 400.066 633.844H343.517L343.553 581.6L330.877 581.635V646.655H388.979Z" fill="#E82127"/>
<path d="M438.366 594.596H486.846C493.58 593.258 498.588 587.315 500 581.566H425.215C426.613 587.317 431.694 593.258 438.366 594.596Z" fill="#E82127"/>
<path d="M427.163 607.314V646.629H439.771V620.454H485.658V646.629H498.257V607.383L427.163 607.314Z" fill="#E82127"/>
<path d="M227.518 453.046L291.17 95.0643C351.842 95.0643 370.979 101.717 373.742 128.873C373.742 128.873 414.442 113.697 434.97 82.8761C354.865 45.7572 274.378 44.0832 274.378 44.0832L227.413 101.287L227.518 101.279L180.553 44.0742C180.553 44.0742 100.064 45.75 19.9697 82.8689C40.4795 113.69 81.1958 128.866 81.1958 128.866C83.9751 101.708 103.089 95.0553 163.353 95.0122L227.518 453.046Z" fill="#E82127"/>
<path d="M227.493 27.5593C292.247 27.0641 366.364 37.5764 442.239 70.6458C452.38 52.3931 454.987 44.3263 454.987 44.3263C372.045 11.5117 294.371 0.281693 227.484 0C160.601 0.281693 82.9308 11.5135 0 44.3263C0 44.3263 3.69969 54.2627 12.739 70.6458C88.5988 37.5764 162.729 27.0641 227.484 27.5593H227.493Z" fill="#E82127"/>
</g>
<defs>
<clipPath id="clip0_28_1275">
<rect width="500" height="646.706" fill="white"/>
</clipPath>
</defs>
</svg>
