<svg width="488" height="325" viewBox="0 0 488 325" fill="none" xmlns="http://www.w3.org/2000/svg">
<path d="M209.543 140.46C209.856 140.773 227.79 140.656 228.26 140.343C228.495 140.186 228.886 139.168 229.121 138.111C232.723 121.979 230.961 103.457 224.657 90.8096C219.919 81.3728 212.049 73.5808 202.808 69.2344C195.525 65.7886 185.814 63.5175 174.968 62.7344C171.874 62.5386 152.452 62.3428 130.25 62.3428H90.9756V65.083H95.5967C106.835 65.083 112.786 67.3546 115.488 72.6016C117.838 77.1828 117.759 76.2438 117.994 109.723L118.19 140.46H137.377L137.494 102.752L137.572 65.083H150.416C173.753 65.083 181.115 66.1801 190.238 70.8789C195.25 73.5024 200.38 78.6316 203.316 84.0352C206.566 89.9478 208.485 96.1738 210.091 106.002C210.835 110.544 210.718 132.707 209.935 137.054C209.621 138.815 209.465 140.342 209.543 140.46ZM383.595 140.656C388.568 140.656 392.914 140.499 393.188 140.304C394.285 139.637 396.008 127.93 396.008 121.117C396.008 106.786 392.366 93.8246 385.67 84.3486C376.311 71.0745 361.823 64.3006 339.426 62.7344C336.41 62.5386 316.362 62.3428 294.904 62.3428H255.826V64.9658L262.209 65.2012C265.694 65.3187 269.531 65.6312 270.706 65.9053C277.441 67.3541 280.612 70.6438 282.335 77.8877C282.883 80.1979 283.001 84.5443 283.118 110.505L283.275 140.46H302.227L302.345 102.752L302.423 65.083H315.07C333.709 65.1222 340.718 65.7096 348.001 67.9023C363.076 72.4445 371.691 84.1528 374.667 104.24C376.037 113.481 376.116 129.653 374.863 136.701C374.628 137.876 374.472 139.247 374.472 139.756V140.656H383.595ZM282.257 172.96C283.471 176.171 286.604 177.699 289.775 176.681C291.733 176.054 292.595 175.27 293.456 173.352C295.061 169.827 294.043 164.385 291.381 162.427C290.754 161.996 289.462 161.605 288.248 161.487C285.938 161.331 284.254 162.153 282.687 164.268C281.552 165.795 281.317 170.532 282.257 172.96ZM209.308 173.861C208.838 176.915 214.477 178.129 216.904 175.467C217.805 174.488 217.922 171.629 217.1 170.65C216.786 170.298 215.338 169.279 213.89 168.457C212.48 167.596 211.187 166.617 211.03 166.265C210.56 165.051 210.796 163.367 211.579 162.584C213.145 161.018 215.885 161.918 215.886 163.993C215.886 165.05 216.826 165.286 217.218 164.307C217.57 163.367 216.825 162.31 215.455 161.84C212.244 160.744 209.621 162.232 209.621 165.129C209.621 167.087 210.365 168.222 212.323 169.24C215.182 170.65 216.277 171.903 216.277 173.548C216.277 175.271 214.907 176.681 213.263 176.681C212.01 176.681 210.404 175.035 210.404 173.743C210.404 172.491 209.503 172.608 209.308 173.861ZM287.935 176.484C284.45 176.484 283.001 173.822 283.314 168.145C283.51 164.895 284.293 162.936 285.742 162.231C287.857 161.253 290.519 161.958 291.615 163.798C292.516 165.325 292.869 170.141 292.281 172.687C291.616 175.388 290.362 176.484 287.935 176.484ZM92.1504 176.602C93.9124 176.602 94.6957 176.485 94.1084 176.328C93.2079 176.093 93.1292 175.858 93.0117 173.431L92.8945 170.807H94.539C98.6897 170.807 101.196 167.204 99.3945 163.798C98.8072 162.584 96.9275 161.605 95.792 161.918C95.2048 162.075 95.2054 162.114 95.9101 162.153C98.5724 162.311 99.199 168.105 96.7324 169.828C96.2625 170.141 95.2441 170.415 94.4219 170.415H92.9336V161.801L91.4853 161.84C90.663 161.879 90.3106 161.958 90.7021 162.075C91.3283 162.232 91.3673 162.82 91.289 169.162L91.1719 176.054L90.1924 176.328C89.6059 176.485 90.389 176.602 92.1504 176.602ZM152.766 176.642C157.425 176.681 158.952 176.21 160.322 174.292C161.654 172.373 161.888 167.322 160.753 165.051C159.813 163.25 158.364 162.192 156.642 161.996C155.937 161.957 155.741 161.997 156.133 162.075C158.639 162.702 159.892 165.051 159.892 169.24C159.892 174.331 158.365 176.289 154.41 176.289H152.452V161.801H151.199C150.377 161.801 150.103 161.918 150.416 162.114C150.768 162.389 150.886 164.072 150.808 169.24L150.69 176.054L149.711 176.328C149.163 176.485 150.495 176.602 152.766 176.642ZM174.38 176.602C176.142 176.602 176.925 176.485 176.338 176.328L175.358 176.054L175.241 169.24C175.163 164.073 175.281 162.389 175.633 162.114C175.946 161.958 175.359 161.801 174.224 161.801C172.579 161.801 172.383 161.879 172.932 162.31C173.558 162.74 173.597 163.525 173.519 169.437L173.401 176.054L172.422 176.328C171.835 176.485 172.618 176.602 174.38 176.602ZM197.287 176.602C199.088 176.602 199.753 176.524 199.244 176.289C198.657 176.054 197.795 174.095 195.916 168.888C194.507 165.012 193.176 161.802 192.94 161.801C192.275 161.801 191.962 162.898 192.393 163.681C192.628 164.034 193.293 165.796 193.958 167.557L195.094 170.807L192.471 170.885L189.847 170.964L192.549 171.159L195.251 171.395L195.955 173.156C196.934 175.662 196.895 176.21 195.643 176.406C195.016 176.485 195.799 176.562 197.287 176.602ZM242.904 176.602C244.666 176.602 245.449 176.485 244.862 176.328C243.962 176.093 243.883 175.858 243.766 173.47L243.648 170.924L245.645 170.729C248.112 170.494 249.6 169.436 250.266 167.479C251.166 164.777 249.287 161.723 246.859 161.84C245.959 161.918 245.919 161.919 246.702 162.075C248.112 162.349 248.778 163.68 248.778 166.226C248.778 169.123 247.721 170.415 245.254 170.415H243.687V161.801H242.238C240.986 161.801 240.869 161.879 241.456 162.31C242.082 162.74 242.121 163.525 242.043 169.437L241.926 176.054L240.946 176.328C240.359 176.485 241.143 176.602 242.904 176.602ZM262.874 176.562C264.479 176.562 265.419 176.485 264.949 176.406C263.736 176.171 263.618 175.466 263.735 168.145L263.853 161.801L262.287 161.84C261.426 161.879 261.034 161.958 261.426 162.075C262.013 162.232 262.091 162.898 262.091 169.24V176.25L261.034 176.406C260.408 176.485 261.269 176.562 262.874 176.562ZM307.121 176.562C308.727 176.562 309.588 176.485 309.001 176.406C307.944 176.25 307.904 176.171 307.904 173.509V170.807H309.275C311.116 170.807 313.112 169.945 313.935 168.81C314.287 168.261 314.562 167.126 314.562 165.99C314.561 163.563 313.034 161.762 310.959 161.84L309.667 161.879L310.92 162.231C312.643 162.741 313.113 163.798 312.917 166.617C312.682 169.515 311.742 170.533 309.353 170.337L307.787 170.22L307.865 165.99L307.943 161.801L306.26 161.84C305.32 161.84 304.851 161.958 305.164 162.075C306.221 162.506 306.339 163.094 306.339 169.24C306.339 172.567 306.182 175.503 306.025 175.74C305.869 176.014 305.398 176.289 304.968 176.406C304.537 176.485 305.516 176.602 307.121 176.562ZM327.287 176.602C329.167 176.602 329.95 176.485 329.245 176.328L328.07 176.093L327.836 169.671L330.498 169.515L333.161 169.397L330.537 169.318L327.875 169.24V161.801L326.426 161.84C325.604 161.879 325.251 161.958 325.643 162.075C326.269 162.232 326.309 162.819 326.23 169.162L326.112 176.054L325.134 176.328C324.546 176.485 325.447 176.602 327.287 176.602ZM347.062 176.602C348.823 176.602 349.606 176.485 349.02 176.328L348.04 176.054L347.923 169.24C347.845 164.073 347.962 162.389 348.314 162.114C348.628 161.958 348.119 161.801 347.101 161.801C345.73 161.801 345.456 161.918 345.809 162.271C346.318 162.78 346.474 174.956 345.965 175.74C345.808 176.014 345.339 176.289 344.908 176.406C344.477 176.485 345.456 176.602 347.062 176.602ZM361.941 176.562C363.547 176.602 364.525 176.485 364.095 176.406C362.881 176.093 362.685 175.545 362.764 172.373C362.764 170.768 362.803 167.713 362.764 165.599L362.725 161.801L361.471 161.84C360.766 161.84 360.414 161.958 360.688 162.075C361.04 162.194 361.158 164.035 361.158 169.24V176.25L360.101 176.406C359.474 176.485 360.336 176.562 361.941 176.562ZM395.028 176.602C396.712 176.602 397.378 176.485 396.791 176.328L395.812 176.054L395.694 169.437C395.616 163.524 395.655 162.74 396.281 162.31C396.869 161.879 396.751 161.801 395.498 161.801C394.402 161.801 394.05 161.958 394.011 162.467C394.011 162.86 394.011 166.109 394.05 169.71C394.089 176.209 394.089 176.211 393.188 176.406C392.679 176.485 393.54 176.562 395.028 176.602ZM388.646 176.681C388.803 176.679 389.234 176.053 389.547 175.271C390.212 173.626 390.29 173.039 389.703 174.096C389.312 174.722 388.842 173.822 386.649 168.418L384.025 161.996L382.655 161.879C381.481 161.761 381.402 161.801 382.028 162.271C382.655 162.74 382.695 163.446 382.616 169.437L382.498 176.093L381.323 176.328C380.502 176.524 380.854 176.602 382.498 176.562C383.79 176.562 384.456 176.485 383.986 176.406C383.086 176.25 383.086 176.132 383.086 170.181C383.086 166.854 383.125 164.153 383.203 164.15C383.281 164.15 384.457 166.969 385.866 170.415C387.237 173.861 388.49 176.681 388.646 176.681ZM112.513 176.562C114.118 176.562 114.979 176.485 114.392 176.406L113.295 176.25V169.24C113.295 162.898 113.374 162.232 114 162.075C114.352 161.958 113.726 161.879 112.591 161.84C110.672 161.801 110.555 161.84 111.103 162.427C111.612 162.936 111.729 164.111 111.729 169.162C111.729 172.528 111.573 175.503 111.416 175.74C111.259 176.014 110.789 176.289 110.358 176.406C109.928 176.485 110.907 176.602 112.513 176.562ZM136.397 176.562C138.003 176.602 138.982 176.485 138.552 176.406C138.121 176.289 137.651 176.014 137.494 175.74C137.338 175.503 137.181 172.528 137.181 169.162C137.181 164.111 137.299 162.936 137.808 162.427C138.355 161.84 138.238 161.801 136.516 161.84C135.498 161.84 134.871 161.958 135.145 162.075C135.497 162.193 135.614 164.033 135.614 169.24V176.25L134.558 176.406C133.931 176.485 134.792 176.562 136.397 176.562ZM121.322 176.562C122.849 176.562 123.672 176.485 123.202 176.406C122.302 176.25 122.302 176.171 122.302 169.24C122.302 164.033 122.419 162.193 122.811 162.075C123.045 161.958 122.418 161.84 121.4 161.84C119.717 161.801 119.561 161.879 120.108 162.388C120.578 162.897 120.696 164.15 120.696 169.162C120.696 172.529 120.578 175.504 120.422 175.74C120.265 176.014 119.795 176.289 119.364 176.406C118.934 176.485 119.835 176.602 121.322 176.562ZM334.257 164.737C334.374 165.168 334.453 164.698 334.492 163.641C334.531 161.879 334.492 161.801 333.474 161.84C332.808 161.879 332.652 161.958 333.043 162.075C333.435 162.154 333.827 162.623 333.944 163.093C334.023 163.563 334.178 164.307 334.257 164.737ZM271.645 176.642C272.311 176.602 272.585 176.524 272.232 176.406C271.879 176.327 270.587 174.761 269.374 172.921L267.182 169.632L268.121 169.24C269.452 168.731 270.314 167.361 270.314 165.678C270.314 163.681 270.001 163.053 268.709 162.388C268.122 162.074 267.221 161.84 266.712 161.84L265.812 161.918L266.673 162.075C267.965 162.31 268.748 163.681 268.748 165.717C268.748 167.714 267.886 169.24 266.79 169.24C265.498 169.24 265.576 169.867 267.221 172.412C269.531 176.015 270.236 176.681 271.645 176.642ZM370.673 176.642C371.377 176.602 371.652 176.524 371.3 176.406C370.947 176.328 369.655 174.761 368.441 172.96L366.248 169.632L367.423 169.045C368.832 168.301 369.381 167.361 369.381 165.56C369.381 163.68 369.067 163.014 367.775 162.388C367.188 162.075 366.17 161.84 365.583 161.84L364.486 161.918L365.544 162.075C367.032 162.31 367.814 163.602 367.814 165.795C367.814 167.87 366.874 169.24 365.465 169.24C364.447 169.24 364.447 169.358 366.092 172.06C368.363 175.779 369.263 176.681 370.673 176.642ZM392.64 166.773C392.718 166.852 392.993 166.382 393.228 165.678C393.462 164.973 393.579 164.346 393.501 164.268C393.422 164.191 393.149 164.66 392.914 165.364C392.679 166.068 392.562 166.694 392.64 166.773ZM189.024 172.256C189.103 172.334 189.73 170.806 190.395 168.81C191.061 166.813 191.53 165.129 191.452 165.051C191.373 164.974 190.747 166.5 190.082 168.496C189.416 170.493 188.946 172.178 189.024 172.256ZM390.251 173.039C390.329 173.117 390.877 171.903 391.465 170.337C392.012 168.812 392.404 167.482 392.327 167.4C392.249 167.322 391.74 168.536 391.152 170.062C390.565 171.59 390.173 172.922 390.251 173.039ZM188.085 176.562C189.808 176.602 190.277 176.524 189.455 176.328C188.476 176.093 188.281 175.897 188.398 174.996C188.555 173.626 188.359 173.666 187.811 175.075C187.576 175.78 187.028 176.289 186.479 176.406C185.97 176.485 186.675 176.562 188.085 176.562ZM331.79 264V260.867H324.937C312.486 260.867 307.239 258.87 304.733 253.231C302.658 248.533 302.658 248.807 302.423 220.928L302.227 194.928L292.751 194.889H283.275L283.118 220.145C283.001 242.424 282.883 245.753 282.296 248.337C280.025 258.009 275.287 260.867 261.426 260.867H255.826V264H331.79ZM166.94 264V260.867H160.127C147.44 260.867 142.389 258.949 139.766 253.036C137.69 248.455 137.572 246.419 137.572 219.636V195.084H117.994V219.831C117.955 246.771 117.838 248.494 115.841 252.997C113.256 258.753 108.087 260.867 96.6142 260.867H90.9756V264H166.94Z" fill="white"/>
</svg>
