<svg width="1046" height="687" viewBox="0 0 1046 687" fill="none" xmlns="http://www.w3.org/2000/svg">
<path d="M407.057 266C408.123 267.067 469.189 266.667 470.79 265.601C471.59 265.067 472.924 261.6 473.724 258C485.99 203.067 479.99 140 458.523 96.9336C442.39 64.8003 415.59 38.2668 384.123 23.4668C359.323 11.7335 326.256 4.00064 289.323 1.33398C278.79 0.667319 212.657 2.69134e-07 137.057 0H3.32324V9.33398H19.0566C57.3233 9.33399 77.59 17.0669 86.79 34.9336C94.79 50.5336 94.5232 47.334 95.3232 161.334L95.9902 266H161.323L161.724 137.601L161.99 9.33398H205.724C285.19 9.334 310.257 13.0674 341.323 29.0674C358.39 38.0007 375.856 55.4673 385.856 73.8672C396.923 94.0005 403.456 115.2 408.923 148.667C411.456 164.134 411.056 239.6 408.39 254.4C407.323 260.399 406.79 265.598 407.057 266ZM999.724 266.667C1016.66 266.667 1031.46 266.133 1032.39 265.467C1036.12 263.2 1041.99 223.334 1041.99 200.134C1041.99 151.334 1029.59 107.2 1006.79 74.9336C974.923 29.7336 925.59 6.66733 849.323 1.33398C839.057 0.667319 770.79 2.22772e-06 697.724 0H564.656V8.93359L586.39 9.7334C598.256 10.1334 611.323 11.2005 615.323 12.1338C638.257 17.0671 649.056 28.267 654.923 52.9336C656.79 60.8002 657.19 75.6003 657.59 164L658.123 266H722.656L723.057 137.601L723.323 9.33398H766.39C829.856 9.46732 853.723 11.4669 878.523 18.9336C929.857 34.4003 959.19 74.2671 969.323 142.667C973.99 174.134 974.257 229.2 969.99 253.2C969.19 257.2 968.656 261.867 968.656 263.601V266.667H999.724ZM654.656 376.667C658.79 387.6 669.457 392.801 680.257 389.334C686.923 387.201 689.857 384.533 692.79 378C698.256 366 694.79 347.468 685.724 340.801C683.59 339.334 679.19 338.001 675.057 337.601C667.19 337.067 661.456 339.867 656.123 347.067C652.257 352.268 651.456 368.4 654.656 376.667ZM406.257 379.733C404.657 390.133 423.856 394.267 432.123 385.2C435.19 381.867 435.59 372.134 432.79 368.801C431.723 367.601 426.79 364.134 421.856 361.334C417.057 358.401 412.657 355.067 412.123 353.867C410.523 349.734 411.324 344.001 413.99 341.334C419.324 336.001 428.656 339.067 428.656 346.134C428.656 349.734 431.857 350.533 433.19 347.2C434.39 344 431.857 340.401 427.19 338.801C416.257 335.067 407.323 340.134 407.323 350C407.323 356.667 409.857 360.533 416.523 364C426.257 368.8 429.99 373.067 429.99 378.667C429.99 384.534 425.323 389.334 419.724 389.334C415.457 389.334 409.99 383.734 409.99 379.334C409.99 375.067 406.924 375.467 406.257 379.733ZM673.99 388.667C662.124 388.667 657.19 379.6 658.257 360.267C658.924 349.2 661.59 342.534 666.523 340.134C673.723 336.801 682.79 339.2 686.523 345.467C689.59 350.667 690.79 367.067 688.79 375.733C686.523 384.933 682.257 388.667 673.99 388.667ZM7.32324 389.067C13.3229 389.067 15.9897 388.667 13.9902 388.134C10.9236 387.334 10.6568 386.533 10.2568 378.267L9.85645 369.334H15.457C29.5901 369.334 38.1235 357.067 31.9902 345.467C29.9902 341.334 23.5903 338.001 19.7236 339.067C17.7237 339.601 17.7233 339.734 20.123 339.867C29.1897 340.401 31.3229 360.133 22.9229 366C21.3228 367.067 17.8566 368 15.0566 368H9.99023V338.667L5.05664 338.801C2.25679 338.934 1.05666 339.201 2.38965 339.601C4.52297 340.134 4.65631 342.134 4.38965 363.733L3.99023 387.2L0.65625 388.134C-1.34304 388.667 1.32365 389.067 7.32324 389.067ZM213.724 389.2C229.59 389.334 234.79 387.733 239.457 381.2C243.99 374.667 244.789 357.467 240.923 349.733C237.723 343.6 232.789 340.001 226.923 339.334C224.523 339.201 223.857 339.334 225.19 339.601C233.723 341.734 237.99 349.734 237.99 364C237.99 381.333 232.79 388 219.323 388H212.656V338.667H208.39C205.59 338.667 204.657 339.067 205.724 339.733C206.924 340.667 207.323 346.401 207.057 364L206.656 387.2L203.323 388.134C201.457 388.667 205.99 389.067 213.724 389.2ZM287.323 389.067C293.323 389.067 295.99 388.667 293.99 388.134L290.656 387.2L290.257 364C289.99 346.4 290.39 340.667 291.59 339.733C292.656 339.2 290.657 338.667 286.79 338.667C281.19 338.667 280.523 338.934 282.39 340.4C284.523 341.867 284.656 344.534 284.39 364.667L283.99 387.2L280.656 388.134C278.657 388.667 281.324 389.067 287.323 389.067ZM365.323 389.067C371.456 389.067 373.723 388.8 371.99 388C369.99 387.2 367.056 380.534 360.656 362.801C355.857 349.602 351.324 338.669 350.523 338.667C348.257 338.667 347.19 342.401 348.656 345.067C349.456 346.268 351.724 352.267 353.99 358.267L357.856 369.334L348.923 369.601L339.99 369.867L349.19 370.533L358.39 371.334L360.79 377.334C364.123 385.867 363.99 387.734 359.724 388.4C357.59 388.667 360.257 388.934 365.323 389.067ZM520.656 389.067C526.656 389.067 529.323 388.667 527.323 388.134C524.257 387.334 523.99 386.534 523.59 378.4L523.19 369.733L529.99 369.067C538.39 368.267 543.457 364.667 545.724 358C548.79 348.8 542.39 338.401 534.123 338.801C531.057 339.067 530.923 339.067 533.59 339.601C538.39 340.534 540.656 345.067 540.656 353.733C540.656 363.6 537.056 368 528.656 368H523.323V338.667H518.39C514.123 338.667 513.724 338.934 515.724 340.4C517.857 341.867 517.99 344.535 517.724 364.667L517.323 387.2L513.99 388.134C511.99 388.667 514.657 389.067 520.656 389.067ZM588.656 388.934C594.122 388.934 597.323 388.667 595.724 388.4C591.59 387.6 591.19 385.2 591.59 360.267L591.99 338.667L586.656 338.801C583.723 338.934 582.39 339.201 583.724 339.601C585.723 340.134 585.99 342.402 585.99 364V387.867L582.39 388.4C580.257 388.667 583.19 388.934 588.656 388.934ZM731.99 388.4C730.524 388.667 733.857 389.067 739.323 388.934C744.79 388.934 747.723 388.667 745.724 388.4C742.124 387.867 741.99 387.6 741.99 378.533V369.334H746.656C752.923 369.334 759.723 366.4 762.523 362.533C763.723 360.666 764.656 356.8 764.656 352.934C764.656 344.667 759.456 338.534 752.39 338.801L747.99 338.934L752.257 340.134C758.123 341.867 759.723 345.467 759.057 355.067C758.257 364.934 755.056 368.4 746.923 367.733L741.59 367.334L741.856 352.934L742.123 338.667L736.39 338.801C733.19 338.801 731.59 339.201 732.656 339.601C736.256 341.067 736.656 343.067 736.656 364C736.656 375.333 736.123 385.334 735.59 386.134C735.056 387.067 733.457 388 731.99 388.4ZM807.99 389.067C814.39 389.067 817.056 388.667 814.656 388.134L810.656 387.334L810.257 376.4L809.856 365.467L818.923 364.934L827.99 364.533L819.057 364.267L809.99 364V338.667L805.057 338.801C802.257 338.934 801.057 339.201 802.39 339.601C804.523 340.134 804.656 342.134 804.39 363.733L803.99 387.2L800.656 388.134C798.657 388.667 801.724 389.067 807.99 389.067ZM875.323 389.067C881.323 389.067 883.99 388.667 881.99 388.134L878.656 387.2L878.257 364C877.99 346.4 878.39 340.667 879.59 339.733C880.656 339.2 878.923 338.667 875.457 338.667C870.791 338.667 869.857 339.067 871.057 340.267C872.79 342 873.323 383.467 871.59 386.134C871.056 387.067 869.457 388 867.99 388.4C866.524 388.667 869.857 389.067 875.323 389.067ZM925.99 388.934C931.457 389.067 934.79 388.667 933.323 388.4C929.19 387.334 928.523 385.467 928.79 374.667C928.79 369.2 928.923 358.801 928.79 351.601L928.656 338.667L924.39 338.801C921.99 338.801 920.79 339.201 921.724 339.601C922.923 340.002 923.323 346.269 923.323 364V387.867L919.724 388.4C917.59 388.667 920.524 388.934 925.99 388.934ZM1038.66 389.067C1044.39 389.067 1046.66 388.667 1044.66 388.134L1041.32 387.2L1040.92 364.667C1040.66 344.535 1040.79 341.867 1042.92 340.4C1044.92 338.934 1044.52 338.667 1040.26 338.667C1036.52 338.667 1035.32 339.2 1035.19 340.934C1035.19 342.267 1035.19 353.334 1035.32 365.601C1035.46 387.734 1035.46 387.734 1032.39 388.4C1030.66 388.667 1033.59 388.934 1038.66 389.067ZM1016.92 389.334C1017.46 389.334 1018.92 387.2 1019.99 384.533C1022.26 378.934 1022.52 376.934 1020.52 380.533C1019.19 382.667 1017.59 379.6 1010.12 361.2L1001.19 339.334L996.523 338.934C992.524 338.534 992.257 338.667 994.39 340.267C996.523 341.867 996.656 344.267 996.39 364.667L995.99 387.334L991.99 388.134C989.19 388.8 990.39 389.067 995.99 388.934C1000.39 388.934 1002.66 388.667 1001.06 388.4C997.99 387.867 997.99 387.467 997.99 367.2C997.99 355.871 998.123 346.674 998.39 346.667C998.656 346.667 1002.66 356.267 1007.46 368C1012.12 379.73 1016.39 389.329 1016.92 389.334ZM69.3232 388.4C67.8567 388.667 71.1898 389.067 76.6562 388.934C82.1229 388.934 85.0565 388.667 83.0566 388.4L79.3232 387.867V364C79.3232 342.4 79.5903 340.134 81.7236 339.601C82.9231 339.201 80.7893 338.934 76.9229 338.801C70.3899 338.667 69.9898 338.801 71.8564 340.801C73.5897 342.534 73.9902 346.534 73.9902 363.733C73.9902 375.2 73.4562 385.334 72.9229 386.134C72.3894 387.067 70.7898 388 69.3232 388.4ZM157.99 388.934C163.457 389.067 166.79 388.667 165.323 388.4C163.857 388 162.257 387.067 161.724 386.134C161.19 385.334 160.656 375.2 160.656 363.733C160.656 346.534 161.057 342.534 162.79 340.801C164.657 338.801 164.256 338.667 158.39 338.801C154.923 338.801 152.79 339.201 153.724 339.601C154.923 340.002 155.323 346.269 155.323 364V387.867L151.724 388.4C149.59 388.667 152.524 388.934 157.99 388.934ZM99.9902 388.4C98.5236 388.667 101.59 389.067 106.656 388.934C111.856 388.934 114.657 388.667 113.057 388.4C109.99 387.867 109.99 387.6 109.99 364C109.99 346.267 110.39 340.001 111.724 339.601C112.523 339.201 110.389 338.801 106.923 338.801C101.19 338.667 100.657 338.934 102.523 340.667C104.123 342.4 104.523 346.667 104.523 363.733C104.523 375.2 104.123 385.334 103.59 386.134C103.056 387.067 101.457 388 99.9902 388.4ZM831.724 348.667C832.124 350.133 832.39 348.534 832.523 344.934C832.657 338.934 832.523 338.667 829.057 338.801C826.79 338.934 826.257 339.201 827.59 339.601C828.923 339.867 830.256 341.467 830.656 343.067C830.923 344.667 831.457 347.2 831.724 348.667ZM618.523 389.2C620.79 389.067 621.723 388.8 620.523 388.4C619.323 388.134 614.923 382.8 610.79 376.533L603.323 365.334L606.523 364C611.057 362.267 613.99 357.6 613.99 351.867C613.99 345.067 612.923 342.934 608.523 340.667C606.524 339.6 603.457 338.801 601.724 338.801L598.656 339.067L601.59 339.601C605.99 340.401 608.656 345.067 608.656 352C608.656 358.8 605.723 364 601.99 364C597.59 364 597.857 366.134 603.457 374.801C611.323 387.067 613.724 389.334 618.523 389.2ZM955.724 389.2C958.123 389.067 959.056 388.8 957.856 388.4C956.656 388.133 952.256 382.8 948.123 376.667L940.656 365.334L944.656 363.334C949.456 360.801 951.323 357.6 951.323 351.467C951.323 345.067 950.256 342.8 945.856 340.667C943.856 339.6 940.39 338.801 938.39 338.801L934.656 339.067L938.257 339.601C943.323 340.401 945.99 344.8 945.99 352.267C945.99 359.333 942.79 364 937.99 364C934.524 364 934.523 364.401 940.123 373.601C947.856 386.267 950.924 389.334 955.724 389.2ZM1030.52 355.601C1030.79 355.866 1031.72 354.266 1032.52 351.867C1033.32 349.468 1033.72 347.336 1033.46 347.067C1033.19 346.801 1032.26 348.401 1031.46 350.801C1030.66 353.201 1030.26 355.334 1030.52 355.601ZM337.19 374.267C337.457 374.533 339.59 369.333 341.856 362.533C344.123 355.734 345.723 350.001 345.457 349.733C345.19 349.467 343.057 354.667 340.79 361.467C338.523 368.267 336.924 374 337.19 374.267ZM1022.39 376.934C1022.66 377.2 1024.52 373.067 1026.52 367.733C1028.39 362.534 1029.72 358.001 1029.46 357.733C1029.19 357.467 1027.46 361.601 1025.46 366.801C1023.46 372 1022.12 376.532 1022.39 376.934ZM333.99 388.934C339.857 389.067 341.456 388.8 338.656 388.134C335.323 387.334 334.657 386.667 335.057 383.601C335.59 378.934 334.923 379.067 333.057 383.867C332.257 386.267 330.39 388 328.523 388.4C326.79 388.667 329.19 388.934 333.99 388.934ZM823.323 686.667V676H799.99C757.59 676 739.724 669.2 731.19 650C724.124 634 724.123 634.933 723.323 540L722.656 451.467L690.39 451.334H658.123L657.59 537.334C657.19 613.2 656.79 624.534 654.79 633.334C647.057 666.267 630.923 676 583.724 676H564.656V686.667H823.323ZM261.99 686.667V676H238.79C195.59 676 178.39 669.467 169.457 649.334C162.39 633.734 161.99 626.8 161.99 535.601V452H95.3232V536.267C95.1899 627.999 94.7901 633.867 87.9902 649.2C79.1902 668.8 61.59 676 22.5234 676H3.32324V686.667H261.99Z" fill="white"/>
</svg>
