<svg version="1.1" id="Layer_1" xmlns="http://www.w3.org/2000/svg" x="0" y="0" viewBox="0 0 99.7 29.5" xml:space="preserve"><path fill="#fff" d="M4 5.7H.4V.8h13.3v4.9h-3.5c-.3 0-.5.2-.4.5v22.6H4.4V6.2c0-.3-.2-.5-.4-.5zM60.2 5.7h-3.6V.8h13.3v4.9h-3.5c-.3 0-.5.2-.4.5v22.6h-5.3V6.2c0-.3-.2-.5-.5-.5zM14.3 22.5V7.1C14.3 2.6 17 .5 21 .5s6.7 2.1 6.7 6.6v15.4c0 4.7-2.7 6.6-6.7 6.6s-6.7-1.9-6.7-6.6zm8-.5V7.4c0-1.7-.3-2.3-1.2-2.3s-1.2.6-1.2 2.3V22c0 1.6.3 2.2 1.2 2.2s1.2-.5 1.2-2.2zM29.4.8h6.5c4.5 0 6.4 1.9 6.4 5.6v7.3c0 3.8-1.8 6.1-6.4 6.1h-1.3v8.9h-5.2V.8zm5.2 4.7V15c0 .1.1.2.2.2h.7c1 0 1.5-.4 1.5-1.6V6.7c0-.8-.7-1.5-1.5-1.5h-.7c-.1.1-.2.2-.2.3zM43.4 23.2v-5.5h5.4v5.2c0 1 .2 1.5 1.1 1.5s1-.5 1-1.5v-3.6c0-1.5-1.2-2.2-3.1-3.3-2.3-1.4-4.2-2.8-4.2-6.1V6.2c0-3.8 2.2-5.8 6.3-5.8S56 2.3 56 5.8v4.8h-5.1V6.3c0-1.1-.2-1.5-1-1.5s-1 .4-1 1.5v3c0 1.3 1.1 1.8 3.1 3.1 2.2 1.4 4.2 2.8 4.2 6.2v4.6c0 4.1-2.1 6-6.4 6-4.6 0-6.4-1.9-6.4-6zM71 .8h10.6v4.9h-5.1c-.2 0-.3.1-.3.3v5.9c0 .1.1.3.3.3h4.6v4.9h-4.6c-.2 0-.3.1-.3.3v6c0 .2.1.3.3.3h5.1v5.1H71V.8zM82.8.8h6.5c4.5 0 6.4 1.9 6.4 5.6v7.3c0 3.8-1.8 6.1-6.4 6.1H88v8.9h-5.2V.8zM88 5.5V15c0 .1.1.2.2.2h.7c1 0 1.5-.4 1.5-1.6V6.7c0-.8-.7-1.5-1.5-1.5h-.7c-.1.1-.2.2-.2.3zM96.8 3.9c-.3-.2-.4-.6-.4-1.1v-.1c0-.4.1-.8.4-1.1.3-.3.6-.4 1.1-.4.4 0 .8.1 1 .4s.4.6.4 1.1v.1c0 .5-.1.8-.4 1.1s-.6.4-1 .4-.8-.2-1.1-.4zm1.9-.2c.2-.2.3-.5.3-.9s-.1-.7-.3-.9c-.2-.2-.5-.3-.9-.3s-.6.1-.9.3c-.2.2-.3.5-.3.9s.1.7.3.9c.3.2.6.3 1 .3.3 0 .6-.1.8-.3zm-1.1-.8v.6h-.3V2h.6c.2 0 .4 0 .5.1s.1.2.1.3c0 .1 0 .2-.1.3s-.1.1-.2.1c.1 0 .2 0 .2.1s.1.1.1.3v.2h-.3v-.2c0-.1 0-.2-.1-.2 0 0-.1-.1-.3-.1h-.2zm0-.7v.5h.3c.1 0 .2 0 .3-.1.1 0 .1-.1.1-.2s0-.1-.1-.2c-.1 0-.1-.1-.3-.1h-.3z"/></svg>