<svg width="352" height="326" viewBox="0 0 352 326" fill="none" xmlns="http://www.w3.org/2000/svg">
<mask id="mask0_228_348" style="mask-type:luminance" maskUnits="userSpaceOnUse" x="0" y="0" width="352" height="326">
<path d="M264.965 126.995L226.382 75.448L128.95 209.283L163.01 259.39L139.322 289.065L40.7368 147.69H84.4298L124.014 200.427L220.043 64.312L174.71 0L84.2796 126.432H0L138.182 324.579L175.762 277.479L209.985 325.143L254.605 261.958L352 125.831L264.965 126.995ZM310.286 147.652L245.523 238.069L222.524 208.82L265.253 148.253L310.286 147.652ZM184.931 253.803L154.943 209.697L226.62 111.249L246.55 137.881L196.017 209.534L232.708 256.108L209.835 288.489L184.931 253.803ZM102.919 136.904L174.585 36.6906L194.039 64.2493L123.488 164.313L102.919 136.904Z" fill="white"/>
</mask>
<g mask="url(#mask0_228_348)">
<path d="M102.92 161.784L104.711 164.314H102.92V161.784Z" fill="#A073F7"/>
<path d="M102.92 157.901L107.454 164.314H104.711L102.92 161.784V157.901Z" fill="#A073F7"/>
<path d="M102.92 154.017L110.198 164.314H107.454L102.92 157.9V154.017Z" fill="#A073F7"/>
<path d="M102.92 150.147L112.928 164.314H110.198L102.92 154.017V150.147Z" fill="#A073F7"/>
<path d="M102.92 146.263L115.672 164.314H112.928L102.92 150.147V146.263Z" fill="#A073F7"/>
<path d="M102.92 142.393L118.416 164.314H115.672L102.92 146.263V142.393Z" fill="#A073F7"/>
<path d="M102.92 138.51L121.146 164.315H118.416L102.92 142.393V138.51Z" fill="#A073F7"/>
<path d="M102.92 134.626L123.89 164.315H121.146L102.92 138.51V134.626Z" fill="#A073F7"/>
<path d="M102.92 130.756L126.62 164.315H123.89L102.92 134.627V130.756Z" fill="#A073F7"/>
<path d="M102.92 126.872L128.85 163.587L127.836 164.314H126.62L102.92 130.755V126.872Z" fill="#A073F7"/>
<path d="M102.92 123.002L130.679 162.298L128.85 163.589L102.92 126.873V123.002Z" fill="#A073F7"/>
<path d="M102.92 119.118L132.508 161.007L130.679 162.298L102.92 123.001V119.118Z" fill="#A073F7"/>
<path d="M102.92 115.235L134.337 159.717L132.508 161.008L102.92 119.119V115.235Z" fill="#A073F7"/>
<path d="M102.92 111.365L136.166 158.427L134.337 159.717L102.92 115.235V111.365Z" fill="#A073F7"/>
<path d="M102.92 107.481L137.994 157.137L136.166 158.427L102.92 111.365V107.481Z" fill="#A073F7"/>
<path d="M102.92 103.598L139.824 155.846L137.994 157.137L102.92 107.481V103.598Z" fill="#A073F7"/>
<path d="M102.92 99.7274L141.652 154.557L139.824 155.847L102.92 103.599V99.7274Z" fill="#A073F7"/>
<path d="M102.92 95.8441L143.481 153.266L141.652 154.556L102.92 99.727V95.8441Z" fill="#A073F7"/>
<path d="M102.92 91.9735L145.31 151.976L143.481 153.266L102.92 95.844V91.9735Z" fill="#A073F7"/>
<path d="M102.92 88.0901L147.126 150.686L145.31 151.976L102.92 91.9736V88.0901Z" fill="#A073F7"/>
<path d="M102.92 84.2665L102.945 84.2418L148.956 149.393L147.126 150.683L102.92 88.0876V84.2665Z" fill="#A073F7"/>
<path d="M105.421 82.7986L103.582 84.0992L149.841 149.5L151.68 148.2L105.421 82.7986Z" fill="#A073F7"/>
<path d="M106.605 81.6794L104.773 82.9729L150.782 148.122L152.614 146.828L106.605 81.6794Z" fill="#A073F7"/>
<path d="M109.079 80.2045L107.24 81.505L153.499 146.906L155.338 145.606L109.079 80.2045Z" fill="#A073F7"/>
<path d="M110.27 79.0868L108.438 80.3802L154.447 145.53L156.279 144.236L110.27 79.0868Z" fill="#A073F7"/>
<path d="M112.098 77.7946L110.266 79.088L156.275 144.237L158.107 142.944L112.098 77.7946Z" fill="#A073F7"/>
<path d="M114.576 76.3021L112.738 77.6027L158.997 143.004L160.835 141.703L114.576 76.3021Z" fill="#A073F7"/>
<path d="M115.752 75.2162L113.921 76.5096L159.929 141.659L161.761 140.366L115.752 75.2162Z" fill="#A073F7"/>
<path d="M118.227 73.6826L116.388 74.9832L162.647 140.384L164.486 139.084L118.227 73.6826Z" fill="#A073F7"/>
<path d="M119.399 72.63L117.567 73.9234L163.576 139.072L165.408 137.779L119.399 72.63Z" fill="#A073F7"/>
<path d="M121.897 71.0852L120.058 72.3851L166.317 137.786L168.156 136.486L121.897 71.0852Z" fill="#A073F7"/>
<path d="M123.053 70.047L121.222 71.3404L167.23 136.49L169.062 135.196L123.053 70.047Z" fill="#A073F7"/>
<path d="M124.881 68.7531L123.049 70.0465L169.058 135.196L170.889 133.902L124.881 68.7531Z" fill="#A073F7"/>
<path d="M127.373 67.1925L125.534 68.4931L171.793 133.894L173.632 132.594L127.373 67.1925Z" fill="#A073F7"/>
<path d="M128.535 66.178L126.704 67.4714L172.713 132.621L174.544 131.327L128.535 66.178Z" fill="#A073F7"/>
<path d="M131.029 64.5825L129.19 65.8827L175.45 131.284L177.288 129.983L131.029 64.5825Z" fill="#A073F7"/>
<path d="M132.202 63.5981L130.37 64.8916L176.379 130.041L178.21 128.748L132.202 63.5981Z" fill="#A073F7"/>
<path d="M134.699 61.9883L132.861 63.2888L179.119 128.69L180.958 127.389L134.699 61.9883Z" fill="#A073F7"/>
<path d="M135.854 61.0103L134.023 62.3037L180.031 127.453L181.863 126.159L135.854 61.0103Z" fill="#A073F7"/>
<path d="M138.357 59.391L136.519 60.6915L182.777 126.093L184.616 124.792L138.357 59.391Z" fill="#A073F7"/>
<path d="M139.5 58.4384L137.668 59.7318L183.677 124.881L185.509 123.588L139.5 58.4384Z" fill="#A073F7"/>
<path d="M141.325 57.1461L139.494 58.4396L185.503 123.589L187.334 122.296L141.325 57.1461Z" fill="#A073F7"/>
<path d="M143.846 55.4854L142.007 56.7859L188.266 122.187L190.105 120.886L143.846 55.4854Z" fill="#A073F7"/>
<path d="M144.993 54.5677L143.161 55.8612L189.17 121.01L191.002 119.717L144.993 54.5677Z" fill="#A073F7"/>
<path d="M147.501 52.8881L145.663 54.1886L191.922 119.59L193.761 118.289L147.501 52.8881Z" fill="#A073F7"/>
<path d="M146.813 53.2654L148.641 51.9752L194.038 116.262V117.552L192.823 118.417L146.813 53.2654Z" fill="#A073F7"/>
<path d="M148.642 51.9731L150.471 50.6829L194.039 112.377V116.26L148.642 51.9731Z" fill="#A073F7"/>
<path d="M150.47 50.6841L152.299 49.3938L194.038 108.495V112.378L150.47 50.6841Z" fill="#A073F7"/>
<path d="M152.3 49.3948L154.116 48.1046L194.039 104.625V108.496L152.3 49.3948Z" fill="#A073F7"/>
<path d="M154.116 48.1025L155.945 46.8123L194.038 100.74V104.623L154.116 48.1025Z" fill="#A073F7"/>
<path d="M155.945 46.8134L157.773 45.5232L194.038 96.8698V100.741L155.945 46.8134Z" fill="#A073F7"/>
<path d="M157.774 45.5242L159.603 44.234L194.039 92.9875V96.871L157.774 45.5242Z" fill="#A073F7"/>
<path d="M159.603 44.2319L161.431 42.9417L194.038 89.1027V92.9855L159.603 44.2319Z" fill="#A073F7"/>
<path d="M161.431 42.9429L163.261 41.6526L194.039 85.2329V89.1034L161.431 42.9429Z" fill="#A073F7"/>
<path d="M163.26 41.6536L165.089 40.3634L194.038 81.3507V85.2342L163.26 41.6536Z" fill="#A073F7"/>
<path d="M165.089 40.3614L166.918 39.0712L194.039 77.4777V81.3488L165.089 40.3614Z" fill="#A073F7"/>
<path d="M166.918 39.0722L168.747 37.782L194.038 73.596V77.4789L166.918 39.0722Z" fill="#A073F7"/>
<path d="M168.747 37.783L170.251 36.7183H170.727L194.039 69.7139V73.5967L168.747 37.783Z" fill="#A073F7"/>
<path d="M173.47 36.7183L194.039 65.8427V69.7139L170.727 36.7183H173.47Z" fill="#A073F7"/>
<path d="M176.201 36.7183L194.039 61.9595V65.8427L173.47 36.7183H176.201Z" fill="#A073F7"/>
<path d="M178.944 36.7183L194.039 58.0888V61.9595L176.201 36.7183H178.944Z" fill="#A073F7"/>
<path d="M181.688 36.7183L194.039 54.2055V58.0888L178.944 36.7183H181.688Z" fill="#A073F7"/>
<path d="M184.418 36.7183L194.039 50.3223V54.2055L181.688 36.7183H184.418Z" fill="#A073F7"/>
<path d="M187.162 36.7183L194.039 46.4515V50.3223L184.418 36.7183H187.162Z" fill="#A073F7"/>
<path d="M189.905 36.7183L194.039 42.5682V46.4515L187.162 36.7183H189.905Z" fill="#A073F7"/>
<path d="M192.636 36.7183L194.039 38.6975V42.5682L189.905 36.7183H192.636Z" fill="#A073F7"/>
<path d="M194.039 38.6975L192.636 36.7183H194.039V38.6975Z" fill="#A073F7"/>
<path d="M154.943 285.846L156.809 288.489H154.943V285.846Z" fill="#A073F7"/>
<path d="M154.943 281.963L159.553 288.489H156.809L154.943 285.846V281.963Z" fill="#A073F7"/>
<path d="M154.943 278.092L162.283 288.49H159.553L154.943 281.963V278.092Z" fill="#A073F7"/>
<path d="M154.943 274.209L165.027 288.489H162.283L154.943 278.092V274.209Z" fill="#A073F7"/>
<path d="M154.943 270.338L167.77 288.489H165.027L154.943 274.209V270.338Z" fill="#A073F7"/>
<path d="M154.943 266.455L170.501 288.489H167.77L154.943 270.339V266.455Z" fill="#A073F7"/>
<path d="M154.943 262.584L173.244 288.489H170.501L154.943 266.455V262.584Z" fill="#A073F7"/>
<path d="M154.943 258.701L175.988 288.489H173.244L154.943 262.585V258.701Z" fill="#A073F7"/>
<path d="M154.943 254.818L178.719 288.489H175.988L154.943 258.701V254.818Z" fill="#A073F7"/>
<path d="M154.943 250.947L181.462 288.49H178.719L154.943 254.818V250.947Z" fill="#A073F7"/>
<path d="M154.943 247.064L184.205 288.49H181.462L154.943 250.947V247.064Z" fill="#A073F7"/>
<path d="M154.943 243.181L186.936 288.49H184.205L154.943 247.064V243.181Z" fill="#A073F7"/>
<path d="M154.943 239.31L189.679 288.49H186.936L154.943 243.18V239.31Z" fill="#A073F7"/>
<path d="M154.943 235.427L192.423 288.49H189.679L154.943 239.31V235.427Z" fill="#A073F7"/>
<path d="M154.943 231.556L195.153 288.49H192.423L154.943 235.427V231.556Z" fill="#A073F7"/>
<path d="M154.943 227.673L197.897 288.49H195.153L154.943 231.556V227.673Z" fill="#A073F7"/>
<path d="M154.943 223.79L200.64 288.49H197.897L154.943 227.672V223.79Z" fill="#A073F7"/>
<path d="M154.943 219.919L203.371 288.49H200.64L154.943 223.79V219.919Z" fill="#A073F7"/>
<path d="M154.943 216.036L206.114 288.49H203.371L154.943 219.919V216.036Z" fill="#A073F7"/>
<path d="M154.943 212.165L208.858 288.49H206.114L154.943 216.036V212.165Z" fill="#A073F7"/>
<path d="M154.943 208.282L211.589 288.49H208.858L154.943 212.165V208.282Z" fill="#A073F7"/>
<path d="M154.943 204.398L214.282 288.428L214.182 288.49H211.589L154.943 208.282V204.398Z" fill="#A073F7"/>
<path d="M154.943 200.528L216.111 287.137L214.282 288.428L154.943 204.399V200.528Z" fill="#A073F7"/>
<path d="M154.943 196.645L217.94 285.847L216.111 287.138L154.943 200.528V196.645Z" fill="#A073F7"/>
<path d="M154.943 192.761L219.768 284.557L217.94 285.847L154.943 196.644V192.761Z" fill="#A073F7"/>
<path d="M154.943 188.891L221.597 283.266L219.768 284.557L154.943 192.761V188.891Z" fill="#A073F7"/>
<path d="M154.943 185.007L223.414 281.977L221.597 283.267L154.943 188.891V185.007Z" fill="#A073F7"/>
<path d="M154.943 181.137L225.243 280.686L223.414 281.977L154.943 185.007V181.137Z" fill="#A073F7"/>
<path d="M154.943 177.254L227.072 279.396L225.243 280.687L154.943 181.137V177.254Z" fill="#A073F7"/>
<path d="M154.943 173.383L228.9 278.093L227.072 279.396L154.943 177.253V173.383Z" fill="#A073F7"/>
<path d="M154.943 169.5L230.729 276.803L228.9 278.093L154.943 173.383V169.5Z" fill="#A073F7"/>
<path d="M154.943 165.616L232.558 275.513L230.729 276.803L154.943 169.499V165.616Z" fill="#A073F7"/>
<path d="M154.943 161.746L234.387 274.223L232.558 275.513L154.943 165.617V161.746Z" fill="#A073F7"/>
<path d="M154.943 158.801L155.381 158.488L236.216 272.932L234.387 274.222L154.943 161.745V158.801Z" fill="#A073F7"/>
<path d="M158.291 157.042L156.453 158.342L237.717 273.233L239.556 271.933L158.291 157.042Z" fill="#A073F7"/>
<path d="M159.038 155.908L157.207 157.201L238.031 271.65L239.863 270.357L159.038 155.908Z" fill="#A073F7"/>
<path d="M161.949 154.432L160.11 155.732L241.375 270.623L243.214 269.323L161.949 154.432Z" fill="#A073F7"/>
<path d="M162.704 153.333L160.873 154.626L241.697 269.075L243.528 267.782L162.704 153.333Z" fill="#A073F7"/>
<path d="M164.531 152.037L162.7 153.331L243.525 267.78L245.356 266.486L164.531 152.037Z" fill="#A073F7"/>
<path d="M164.526 152.038L166.355 150.747L246.551 264.314V265.629L245.348 266.481L164.526 152.038Z" fill="#A073F7"/>
<path d="M166.354 150.748L168.171 149.458L246.55 260.431V264.315L166.354 150.748Z" fill="#A073F7"/>
<path d="M168.171 149.455L170 148.165L246.55 256.546V260.429L168.171 149.455Z" fill="#A073F7"/>
<path d="M170 148.166L171.829 146.876L246.551 252.677V256.547L170 148.166Z" fill="#A073F7"/>
<path d="M171.829 146.877L173.657 145.587L246.55 248.794V252.677L171.829 146.877Z" fill="#A073F7"/>
<path d="M173.657 145.585L175.487 144.295L246.551 244.921V248.792L173.657 145.585Z" fill="#A073F7"/>
<path d="M175.486 144.296L177.315 143.006L246.55 241.039V244.923L175.486 144.296Z" fill="#A073F7"/>
<path d="M177.315 143.007L179.145 141.717L246.551 237.157V241.04L177.315 143.007Z" fill="#A073F7"/>
<path d="M179.144 141.715L180.973 140.424L246.55 233.285V237.155L179.144 141.715Z" fill="#A073F7"/>
<path d="M180.973 140.425L182.803 139.135L246.551 229.402V233.285L180.973 140.425Z" fill="#A073F7"/>
<path d="M182.802 139.136L184.618 137.846L246.55 225.532V229.403L182.802 139.136Z" fill="#A073F7"/>
<path d="M184.618 137.844L186.447 136.554L246.55 221.647V225.531L184.618 137.844Z" fill="#A073F7"/>
<path d="M186.447 136.555L188.277 135.264L246.551 217.765V221.648L186.447 136.555Z" fill="#A073F7"/>
<path d="M188.276 135.265L190.105 133.963L246.55 213.895V217.766L188.276 135.265Z" fill="#A073F7"/>
<path d="M190.105 133.961L191.934 132.683L246.551 210.01V213.894L190.105 133.961Z" fill="#A073F7"/>
<path d="M191.934 132.684L193.763 131.394L246.55 206.14V210.011L191.934 132.684Z" fill="#A073F7"/>
<path d="M193.763 131.395L195.592 130.092L246.55 202.258V206.142L193.763 131.395Z" fill="#A073F7"/>
<path d="M195.592 130.09L197.421 128.8L246.55 198.373V202.257L195.592 130.09Z" fill="#A073F7"/>
<path d="M197.421 128.801L199.25 127.51L246.551 194.503V198.374L197.421 128.801Z" fill="#A073F7"/>
<path d="M199.25 127.512L201.078 126.221L246.55 190.621V194.504L199.25 127.512Z" fill="#A073F7"/>
<path d="M201.079 126.219L202.895 124.929L246.55 186.736V190.619L201.079 126.219Z" fill="#A073F7"/>
<path d="M202.895 124.93L204.724 123.64L246.551 182.866V186.736L202.895 124.93Z" fill="#A073F7"/>
<path d="M204.724 123.638L206.552 122.348L246.55 178.98V182.864L204.724 123.638Z" fill="#A073F7"/>
<path d="M206.553 122.349L208.382 121.058L246.551 175.111V178.982L206.553 122.349Z" fill="#A073F7"/>
<path d="M208.382 121.06L210.21 119.769L246.55 171.229V175.112L208.382 121.06Z" fill="#A073F7"/>
<path d="M210.211 119.768L212.04 118.477L246.551 167.344V171.227L210.211 119.768Z" fill="#A073F7"/>
<path d="M212.04 118.478L213.868 117.188L246.55 163.474V167.344L212.04 118.478Z" fill="#A073F7"/>
<path d="M213.868 117.189L215.698 115.899L246.55 159.591V163.475L213.868 117.189Z" fill="#A073F7"/>
<path d="M215.698 115.897L217.526 114.606L246.55 155.719V159.59L215.698 115.897Z" fill="#A073F7"/>
<path d="M217.526 114.607L219.343 113.317L246.551 151.837V155.72L217.526 114.607Z" fill="#A073F7"/>
<path d="M219.343 113.319L221.172 112.028L246.55 147.955V151.838L219.343 113.319Z" fill="#A073F7"/>
<path d="M221.172 112.027L222.274 111.25H223.364L246.55 144.082V147.954L221.172 112.027Z" fill="#A073F7"/>
<path d="M226.108 111.25L246.551 140.2V144.082L223.364 111.25H226.108Z" fill="#A073F7"/>
<path d="M228.836 111.25L246.549 136.328V140.2L226.106 111.25H228.836Z" fill="#A073F7"/>
<path d="M231.582 111.25L246.551 132.446V136.328L228.838 111.25H231.582Z" fill="#A073F7"/>
<path d="M234.325 111.25L246.551 128.562V132.446L231.582 111.25H234.325Z" fill="#A073F7"/>
<path d="M237.056 111.25L246.551 124.692V128.562L234.325 111.25H237.056Z" fill="#A073F7"/>
<path d="M239.799 111.25L246.551 120.808V124.692L237.056 111.25H239.799Z" fill="#A073F7"/>
<path d="M242.542 111.25L246.551 116.925V120.808L239.799 111.25H242.542Z" fill="#A073F7"/>
<path d="M245.273 111.25L246.551 113.054V116.925L242.542 111.25H245.273Z" fill="#A073F7"/>
<path d="M246.551 113.054L245.273 111.25H246.551V113.054Z" fill="#A073F7"/>
<path d="M222.524 238.046L222.549 238.072H222.524V238.046Z" fill="#A073F7"/>
<path d="M222.524 234.176L225.28 238.072H222.549L222.524 238.047V234.176Z" fill="#A073F7"/>
<path d="M222.524 230.292L228.023 238.071H225.28L222.524 234.175V230.292Z" fill="#A073F7"/>
<path d="M222.524 226.409L230.767 238.071H228.023L222.524 230.293V226.409Z" fill="#A073F7"/>
<path d="M222.524 222.539L233.498 238.071H230.767L222.524 226.409V222.539Z" fill="#A073F7"/>
<path d="M222.524 218.655L236.241 238.071H233.498L222.524 222.539V218.655Z" fill="#A073F7"/>
<path d="M222.524 214.785L238.984 238.072H236.241L222.524 218.655V214.785Z" fill="#A073F7"/>
<path d="M222.524 210.901L241.715 238.072H238.984L222.524 214.785V210.901Z" fill="#A073F7"/>
<path d="M222.524 207.018L244.458 238.072H241.715L222.524 210.901V207.018Z" fill="#A073F7"/>
<path d="M222.524 203.147L247.189 238.072H244.458L222.524 207.019V203.147Z" fill="#A073F7"/>
<path d="M222.524 199.264L249.92 238.059L249.908 238.072H247.189L222.524 203.147V199.264Z" fill="#A073F7"/>
<path d="M222.524 195.381L251.749 236.769L249.92 238.059L222.524 199.264V195.381Z" fill="#A073F7"/>
<path d="M222.524 191.51L253.578 235.479L251.749 236.769L222.524 195.381V191.51Z" fill="#A073F7"/>
<path d="M222.524 187.627L255.406 234.189L253.578 235.479L222.524 191.51V187.627Z" fill="#A073F7"/>
<path d="M222.524 183.756L257.236 232.898L255.406 234.189L222.524 187.627V183.756Z" fill="#A073F7"/>
<path d="M222.524 179.873L259.064 231.609L257.236 232.899L222.524 183.757V179.873Z" fill="#A073F7"/>
<path d="M222.524 175.99L260.894 230.318L259.064 231.608L222.524 179.873V175.99Z" fill="#A073F7"/>
<path d="M222.524 175.362L224.052 174.285L262.722 229.026L260.894 230.316L222.524 175.988V175.362Z" fill="#A073F7"/>
<path d="M225.891 172.997L224.059 174.29L262.719 229.033L264.551 227.74L225.891 172.997Z" fill="#A073F7"/>
<path d="M227.718 171.702L225.887 172.995L264.546 227.738L266.378 226.445L227.718 171.702Z" fill="#A073F7"/>
<path d="M229.545 170.406L227.713 171.7L266.373 226.443L268.205 225.149L229.545 170.406Z" fill="#A073F7"/>
<path d="M231.372 169.123L229.54 170.417L268.2 225.16L270.032 223.866L231.372 169.123Z" fill="#A073F7"/>
<path d="M233.199 167.831L231.367 169.125L270.027 223.868L271.859 222.574L233.199 167.831Z" fill="#A073F7"/>
<path d="M235.026 166.536L233.195 167.829L271.854 222.572L273.686 221.279L235.026 166.536Z" fill="#A073F7"/>
<path d="M236.864 165.253L235.033 166.546L273.692 221.289L275.524 219.996L236.864 165.253Z" fill="#A073F7"/>
<path d="M238.683 163.969L236.851 165.262L275.511 220.005L277.342 218.711L238.683 163.969Z" fill="#A073F7"/>
<path d="M240.508 162.671L238.677 163.965L277.336 218.708L279.168 217.415L240.508 162.671Z" fill="#A073F7"/>
<path d="M242.335 161.376L240.504 162.669L279.163 217.412L280.995 216.119L242.335 161.376Z" fill="#A073F7"/>
<path d="M244.163 160.095L242.331 161.388L280.991 216.131L282.823 214.838L244.163 160.095Z" fill="#A073F7"/>
<path d="M245.99 158.798L244.159 160.092L282.819 214.835L284.65 213.541L245.99 158.798Z" fill="#A073F7"/>
<path d="M247.829 157.505L245.997 158.799L284.657 213.542L286.488 212.248L247.829 157.505Z" fill="#A073F7"/>
<path d="M249.656 156.223L247.824 157.517L286.484 212.26L288.316 210.966L249.656 156.223Z" fill="#A073F7"/>
<path d="M251.483 154.927L249.652 156.22L288.312 210.963L290.143 209.67L251.483 154.927Z" fill="#A073F7"/>
<path d="M253.309 153.631L251.478 154.925L290.137 209.668L291.969 208.374L253.309 153.631Z" fill="#A073F7"/>
<path d="M255.127 152.358L253.295 153.652L291.955 208.395L293.786 207.101L255.127 152.358Z" fill="#A073F7"/>
<path d="M256.952 151.063L255.121 152.356L293.781 207.099L295.612 205.806L256.952 151.063Z" fill="#A073F7"/>
<path d="M258.78 149.769L256.948 151.062L295.608 205.805L297.44 204.512L258.78 149.769Z" fill="#A073F7"/>
<path d="M260.62 148.475L258.789 149.768L297.449 204.512L299.281 203.218L260.62 148.475Z" fill="#A073F7"/>
<path d="M260.605 148.468L261.77 147.654H262.772L301.091 201.919L299.262 203.21L260.605 148.468Z" fill="#A073F7"/>
<path d="M265.515 147.654L302.92 200.629L301.091 201.919L262.772 147.654H265.515Z" fill="#A073F7"/>
<path d="M268.246 147.654L304.749 199.339L302.92 200.629L265.515 147.654H268.246Z" fill="#A073F7"/>
<path d="M270.989 147.654L306.578 198.049L304.748 199.339L268.246 147.654H270.989Z" fill="#A073F7"/>
<path d="M273.732 147.654L308.406 196.758L306.577 198.049L270.989 147.654H273.732Z" fill="#A073F7"/>
<path d="M276.464 147.654L310.236 195.468L308.407 196.758L273.733 147.654H276.464Z" fill="#A073F7"/>
<path d="M279.206 147.654L310.285 191.66V195.431L310.235 195.468L276.463 147.654H279.206Z" fill="#A073F7"/>
<path d="M281.95 147.654L310.286 187.777V191.66L279.207 147.654H281.95Z" fill="#A073F7"/>
<path d="M284.681 147.654L310.285 183.906V187.777L281.95 147.654H284.681Z" fill="#A073F7"/>
<path d="M287.424 147.654L310.286 180.023V183.906L284.681 147.654H287.424Z" fill="#A073F7"/>
<path d="M290.155 147.654L310.286 176.152V180.023L287.424 147.654H290.155Z" fill="#A073F7"/>
<path d="M292.898 147.654L310.286 172.269V176.152L290.155 147.654H292.898Z" fill="#A073F7"/>
<path d="M295.642 147.654L310.286 168.385V172.269L292.898 147.654H295.642Z" fill="#A073F7"/>
<path d="M298.372 147.654L310.285 164.515V168.385L295.642 147.654H298.372Z" fill="#A073F7"/>
<path d="M301.116 147.654L310.285 160.631V164.515L298.372 147.654H301.116Z" fill="#A073F7"/>
<path d="M303.859 147.654L310.285 156.761V160.631L301.116 147.654H303.859Z" fill="#A073F7"/>
<path d="M306.59 147.654L310.285 152.877V156.761L303.859 147.654H306.59Z" fill="#A073F7"/>
<path d="M309.335 147.654L310.287 148.994V152.877L306.591 147.654H309.335Z" fill="#A073F7"/>
<path d="M310.285 148.994L309.333 147.654H310.285V148.994Z" fill="#A073F7"/>
<path d="M0 120.332L1.61594 119.179L147.088 325.143H0V120.332Z" fill="#A073F7"/>
<path d="M1.61621 119.18L3.44511 117.89L149.819 325.144H147.089L1.61621 119.18Z" fill="#A073F7"/>
<path d="M3.44507 117.891L5.27396 116.6L152.563 325.144H149.819L3.44507 117.891Z" fill="#A073F7"/>
<path d="M5.27393 116.598L7.10282 115.308L155.293 325.143H152.563L5.27393 116.598Z" fill="#A073F7"/>
<path d="M7.10278 115.309L8.93164 114.019L158.037 325.144H155.294L7.10278 115.309Z" fill="#A073F7"/>
<path d="M8.93188 114.021L10.7607 112.73L160.78 325.146H158.037L8.93188 114.021Z" fill="#A073F7"/>
<path d="M10.7607 112.728L12.5896 111.438L163.511 325.143H160.78L10.7607 112.728Z" fill="#A073F7"/>
<path d="M12.5898 111.439L14.4187 110.148L166.255 325.144H163.511L12.5898 111.439Z" fill="#A073F7"/>
<path d="M14.4187 110.149L16.2476 108.859L168.998 325.145H166.254L14.4187 110.149Z" fill="#A073F7"/>
<path d="M16.2476 108.857L18.0764 107.567L171.729 325.143H168.998L16.2476 108.857Z" fill="#A073F7"/>
<path d="M18.0764 107.568L19.8927 106.278L174.472 325.144H171.728L18.0764 107.568Z" fill="#A073F7"/>
<path d="M19.8926 106.279L21.7215 104.989L177.215 325.145H174.472L19.8926 106.279Z" fill="#A073F7"/>
<path d="M21.7217 104.987L23.5506 103.696L179.959 325.143H177.216L21.7217 104.987Z" fill="#A073F7"/>
<path d="M23.5505 103.698L25.3795 102.407L182.69 325.144H179.959L23.5505 103.698Z" fill="#A073F7"/>
<path d="M25.3796 102.405L27.2086 101.115L185.433 325.142H182.69L25.3796 102.405Z" fill="#A073F7"/>
<path d="M27.2085 101.116L29.0374 99.8258L188.176 325.143H185.433L27.2085 101.116Z" fill="#A073F7"/>
<path d="M29.0374 99.8268L30.8663 98.5366L190.907 325.145H188.176L29.0374 99.8268Z" fill="#A073F7"/>
<path d="M30.8662 98.5349L32.6951 97.2317L193.65 325.142H190.907L30.8662 98.5349Z" fill="#A073F7"/>
<path d="M32.6953 97.2327L34.5242 95.9425L196.394 325.143H193.65L32.6953 97.2327Z" fill="#A073F7"/>
<path d="M34.5242 95.9435L36.3531 94.6533L199.125 325.144H196.394L34.5242 95.9435Z" fill="#A073F7"/>
<path d="M36.353 94.6512L38.1694 93.3611L201.868 325.142H199.125L36.353 94.6512Z" fill="#A073F7"/>
<path d="M38.1694 93.3621L39.9983 92.0719L204.599 325.143H201.868L38.1694 93.3621Z" fill="#A073F7"/>
<path d="M39.9983 92.0737L41.8272 90.7828L207.342 325.145H204.599L39.9983 92.0737Z" fill="#A073F7"/>
<path d="M41.8271 90.7806L43.656 89.4905L210.086 325.143H207.342L41.8271 90.7806Z" fill="#A073F7"/>
<path d="M43.656 89.4915L45.4849 88.2013L212.816 325.143H210.086L43.656 89.4915Z" fill="#A073F7"/>
<path d="M45.4851 88.2023L47.314 86.9121L215.146 324.556L214.332 325.145H212.816L45.4851 88.2023Z" fill="#A073F7"/>
<path d="M49.1375 85.6215L47.3059 86.9149L215.14 324.571L216.972 323.278L49.1375 85.6215Z" fill="#A073F7"/>
<path d="M51.5864 84.0879L49.7478 85.3885L218.496 323.963L220.334 322.663L51.5864 84.0879Z" fill="#A073F7"/>
<path d="M52.7938 83.04L50.9622 84.3341L218.797 321.99L220.628 320.696L52.7938 83.04Z" fill="#A073F7"/>
<path d="M54.6211 81.7445L52.7896 83.0379L220.624 320.694L222.455 319.401L54.6211 81.7445Z" fill="#A073F7"/>
<path d="M57.0621 80.1951L55.2234 81.4956L223.971 320.07L225.81 318.77L57.0621 80.1951Z" fill="#A073F7"/>
<path d="M58.2742 79.1693L56.4426 80.4627L224.277 318.119L226.109 316.826L58.2742 79.1693Z" fill="#A073F7"/>
<path d="M60.72 77.585L58.8813 78.8855L227.629 317.46L229.468 316.16L60.72 77.585Z" fill="#A073F7"/>
<path d="M61.9417 76.5911L60.1101 77.8851L227.944 315.541L229.776 314.248L61.9417 76.5911Z" fill="#A073F7"/>
<path d="M63.7674 75.2957L61.9358 76.5891L229.77 314.246L231.602 312.952L63.7674 75.2957Z" fill="#A073F7"/>
<path d="M65.5949 74.0033L63.7632 75.2967L231.598 312.953L233.429 311.659L65.5949 74.0033Z" fill="#A073F7"/>
<path d="M67.4224 72.7094L65.5906 74.0028L233.425 311.659L235.256 310.365L67.4224 72.7094Z" fill="#A073F7"/>
<path d="M69.8761 71.0884L68.0371 72.3889L236.785 310.964L238.624 309.663L69.8761 71.0884Z" fill="#A073F7"/>
<path d="M71.066 70.1406L69.2341 71.434L237.069 309.09L238.9 307.796L71.066 70.1406Z" fill="#A073F7"/>
<path d="M72.9054 68.8436L71.0742 70.137L238.908 307.793L240.74 306.5L72.9054 68.8436Z" fill="#A073F7"/>
<path d="M74.7318 67.5624L72.8999 68.8558L240.735 306.512L242.566 305.218L74.7318 67.5624Z" fill="#A073F7"/>
<path d="M77.1926 65.8906L75.3542 67.1912L244.102 305.766L245.941 304.465L77.1926 65.8906Z" fill="#A073F7"/>
<path d="M78.3856 64.973L76.5544 66.2663L244.388 303.923L246.22 302.629L78.3856 64.973Z" fill="#A073F7"/>
<path d="M80.213 63.6775L78.3818 64.971L246.216 302.627L248.048 301.334L80.213 63.6775Z" fill="#A073F7"/>
<path d="M82.6777 61.9883L80.8394 63.2888L249.587 301.863L251.426 300.563L82.6777 61.9883Z" fill="#A073F7"/>
<path d="M83.8791 61.0992L82.0479 62.3927L249.882 300.049L251.714 298.756L83.8791 61.0992Z" fill="#A073F7"/>
<path d="M86.349 59.3782L84.51 60.6787L253.258 299.254L255.097 297.953L86.349 59.3782Z" fill="#A073F7"/>
<path d="M87.5233 58.5304L85.6914 59.8239L253.525 297.48L255.357 296.187L87.5233 58.5304Z" fill="#A073F7"/>
<path d="M89.9957 56.7904L88.1567 58.091L256.905 296.666L258.743 295.365L89.9957 56.7904Z" fill="#A073F7"/>
<path d="M91.1754 55.9395L89.3442 57.2329L257.178 294.889L259.01 293.596L91.1754 55.9395Z" fill="#A073F7"/>
<path d="M93.6537 54.1804L91.8147 55.4809L260.563 294.055L262.401 292.755L93.6537 54.1804Z" fill="#A073F7"/>
<path d="M94.8302 53.3644L92.999 54.6579L260.833 292.314L262.665 291.02L94.8302 53.3644Z" fill="#A073F7"/>
<path d="M96.671 52.0688L94.8391 53.3623L262.674 291.018L264.505 289.725L96.671 52.0688Z" fill="#A073F7"/>
<path d="M99.143 50.2686L97.3047 51.5691L266.052 290.144L267.891 288.843L99.143 50.2686Z" fill="#A073F7"/>
<path d="M100.315 49.4811L98.4841 50.7746L266.318 288.431L268.15 287.137L100.315 49.4811Z" fill="#A073F7"/>
<path d="M102.801 47.6743L100.963 48.9748L269.71 287.55L271.549 286.249L102.801 47.6743Z" fill="#A073F7"/>
<path d="M103.961 46.8997L102.129 48.1931L269.964 285.849L271.795 284.556L103.961 46.8997Z" fill="#A073F7"/>
<path d="M106.447 45.0708L104.609 46.3713L273.357 284.946L275.196 283.646L106.447 45.0708Z" fill="#A073F7"/>
<path d="M107.627 44.3213L105.795 45.6148L273.63 283.271L275.462 281.978L107.627 44.3213Z" fill="#A073F7"/>
<path d="M109.454 43.0291L107.623 44.3225L275.457 281.979L277.289 280.685L109.454 43.0291Z" fill="#A073F7"/>
<path d="M111.947 41.1715L110.109 42.472L278.856 281.047L280.695 279.746L111.947 41.1715Z" fill="#A073F7"/>
<path d="M113.107 40.4508L111.276 41.7443L279.11 279.401L280.942 278.107L113.107 40.4508Z" fill="#A073F7"/>
<path d="M114.935 39.1553L113.103 40.4488L280.937 278.105L282.769 276.812L114.935 39.1553Z" fill="#A073F7"/>
<path d="M116.762 37.8629L114.93 39.1563L282.765 276.812L284.596 275.519L116.762 37.8629Z" fill="#A073F7"/>
<path d="M118.601 36.5802L116.769 37.8737L284.603 275.53L286.435 274.237L118.601 36.5802Z" fill="#A073F7"/>
<path d="M120.417 35.291L118.585 36.5845L286.42 274.24L288.252 272.947L120.417 35.291Z" fill="#A073F7"/>
<path d="M122.921 33.3763L121.082 34.6768L289.83 273.251L291.669 271.951L122.921 33.3763Z" fill="#A073F7"/>
<path d="M124.071 32.7031L122.24 33.9966L290.074 271.653L291.906 270.359L124.071 32.7031Z" fill="#A073F7"/>
<path d="M125.898 31.4204L124.067 32.7139L291.901 270.37L293.733 269.077L125.898 31.4204Z" fill="#A073F7"/>
<path d="M127.724 30.1249L125.893 31.4184L293.727 269.075L295.558 267.781L127.724 30.1249Z" fill="#A073F7"/>
<path d="M129.564 28.8326L127.733 30.1261L295.567 267.782L297.399 266.489L129.564 28.8326Z" fill="#A073F7"/>
<path d="M132.077 26.8767L130.238 28.1772L298.986 266.752L300.825 265.451L132.077 26.8767Z" fill="#A073F7"/>
<path d="M133.219 26.2544L131.387 27.5479L299.222 265.204L301.053 263.911L133.219 26.2544Z" fill="#A073F7"/>
<path d="M135.044 24.9589L133.213 26.2523L301.047 263.909L302.879 262.615L135.044 24.9589Z" fill="#A073F7"/>
<path d="M136.863 23.6729L135.031 24.9664L302.865 262.622L304.697 261.329L136.863 23.6729Z" fill="#A073F7"/>
<path d="M138.688 22.3901L136.857 23.6836L304.691 261.339L306.523 260.046L138.688 22.3901Z" fill="#A073F7"/>
<path d="M141.221 20.3738L139.383 21.6743L308.13 260.249L309.969 258.948L141.221 20.3738Z" fill="#A073F7"/>
<path d="M142.356 19.7992L140.524 21.0927L308.359 258.749L310.19 257.455L142.356 19.7992Z" fill="#A073F7"/>
<path d="M144.879 17.7797L143.041 19.0802L311.788 257.655L313.627 256.354L144.879 17.7797Z" fill="#A073F7"/>
<path d="M146.008 17.224L144.177 18.5175L312.011 256.174L313.843 254.88L146.008 17.224Z" fill="#A073F7"/>
<path d="M148.537 15.1697L146.698 16.4702L315.446 255.045L317.285 253.744L148.537 15.1697Z" fill="#A073F7"/>
<path d="M149.655 14.6235L147.824 15.917L315.658 253.573L317.49 252.28L149.655 14.6235Z" fill="#A073F7"/>
<path d="M151.496 13.3407L149.664 14.6342L317.499 252.29L319.33 250.997L151.496 13.3407Z" fill="#A073F7"/>
<path d="M153.322 12.0485L151.49 13.3419L319.324 250.998L321.156 249.705L153.322 12.0485Z" fill="#A073F7"/>
<path d="M155.139 10.7593L153.308 12.0528L321.142 249.709L322.974 248.416L155.139 10.7593Z" fill="#A073F7"/>
<path d="M157.675 8.67004L155.837 9.97055L324.584 248.545L326.423 247.245L157.675 8.67004Z" fill="#A073F7"/>
<path d="M158.793 8.18103L156.961 9.47451L324.795 247.131L326.627 245.837L158.793 8.18103Z" fill="#A073F7"/>
<path d="M161.332 6.05994L159.493 7.36049L328.241 245.935L330.08 244.634L161.332 6.05994Z" fill="#A073F7"/>
<path d="M162.459 5.59326L160.628 6.88672L328.462 244.543L330.294 243.249L162.459 5.59326Z" fill="#A073F7"/>
<path d="M165.002 3.46265L163.164 4.76317L331.911 243.338L333.75 242.037L165.002 3.46265Z" fill="#A073F7"/>
<path d="M166.113 3.01489L164.281 4.30837L332.116 241.965L333.948 240.671L166.113 3.01489Z" fill="#A073F7"/>
<path d="M167.94 1.72253L166.108 3.01602L333.943 240.672L335.775 239.379L167.94 1.72253Z" fill="#A073F7"/>
<path d="M170.487 -0.436523L168.649 0.863989L337.396 239.439L339.235 238.138L170.487 -0.436523Z" fill="#A073F7"/>
<path d="M169.761 0.438434L170.375 0H172.192L339.423 236.792L337.594 238.082L169.761 0.438434Z" fill="#A073F7"/>
<path d="M174.923 0L341.252 235.501L339.423 236.792L172.192 0H174.923Z" fill="#A073F7"/>
<path d="M177.666 0L343.081 234.211L341.252 235.501L174.923 0H177.666Z" fill="#A073F7"/>
<path d="M180.41 0L344.91 232.921L343.081 234.211L177.666 0H180.41Z" fill="#A073F7"/>
<path d="M183.14 0L346.739 231.631L344.91 232.921L180.41 0H183.14Z" fill="#A073F7"/>
<path d="M185.884 0L348.555 230.341L346.738 231.631L183.14 0H185.884Z" fill="#A073F7"/>
<path d="M188.627 0L350.384 229.051L348.555 230.341L185.884 0H188.627Z" fill="#A073F7"/>
<path d="M191.358 0L352.05 227.522V227.873L350.384 229.051L188.627 0H191.358Z" fill="#A073F7"/>
<path d="M194.101 0L352.05 223.639V227.522L191.358 0H194.101Z" fill="#A073F7"/>
<path d="M196.845 0L352.05 219.768V223.639L194.101 0H196.845Z" fill="#A073F7"/>
<path d="M199.576 0L352.05 215.885V219.768L196.845 0H199.576Z" fill="#A073F7"/>
<path d="M202.319 0L352.05 212.001V215.885L199.575 0H202.319Z" fill="#A073F7"/>
<path d="M205.062 0L352.05 208.131V212.001L202.319 0H205.062Z" fill="#A073F7"/>
<path d="M207.793 0L352.05 204.247V208.131L205.062 0H207.793Z" fill="#A073F7"/>
<path d="M210.536 0L352.05 200.377V204.247L207.793 0H210.536Z" fill="#A073F7"/>
<path d="M213.279 0L352.05 196.493V200.377L210.536 0H213.279Z" fill="#A073F7"/>
<path d="M216.01 0L352.05 192.611V196.493L213.28 0H216.01Z" fill="#A073F7"/>
<path d="M218.753 0L352.05 188.739V192.611L216.01 0H218.753Z" fill="#A073F7"/>
<path d="M221.497 0L352.05 184.857V188.739L218.753 0H221.497Z" fill="#A073F7"/>
<path d="M224.228 0L352.05 180.973V184.857L221.497 0H224.228Z" fill="#A073F7"/>
<path d="M226.971 0L352.05 177.103V180.973L224.228 0H226.971Z" fill="#A073F7"/>
<path d="M229.715 0L352.05 173.219V177.103L226.971 0H229.715Z" fill="#A073F7"/>
<path d="M232.445 0L352.05 169.348V173.219L229.714 0H232.445Z" fill="#A073F7"/>
<path d="M235.189 0L352.05 165.465V169.348L232.445 0H235.189Z" fill="#A073F7"/>
<path d="M237.932 0L352.05 161.582V165.465L235.188 0H237.932Z" fill="#A073F7"/>
<path d="M240.662 0L352.05 157.711V161.582L237.932 0H240.662Z" fill="#A073F7"/>
<path d="M243.406 0L352.05 153.828V157.711L240.663 0H243.406Z" fill="#A073F7"/>
<path d="M246.149 0L352.05 149.957V153.828L243.406 0H246.149Z" fill="#A073F7"/>
<path d="M248.881 0L352.05 146.074V149.957L246.149 0H248.881Z" fill="#A073F7"/>
<path d="M251.623 0L352.05 142.191V146.074L248.88 0H251.623Z" fill="#A073F7"/>
<path d="M254.367 0L352.05 138.32V142.191L251.624 0H254.367Z" fill="#A073F7"/>
<path d="M257.098 0L352.05 134.436V138.32L254.367 0H257.098Z" fill="#A073F7"/>
<path d="M259.841 0L352.05 130.553V134.436L257.098 0H259.841Z" fill="#A073F7"/>
<path d="M262.584 0L352.05 126.682V130.553L259.841 0H262.584Z" fill="#A073F7"/>
<path d="M265.315 0L352.05 122.799V126.682L262.584 0H265.315Z" fill="#A073F7"/>
<path d="M268.059 0L352.05 118.928V122.799L265.315 0H268.059Z" fill="#A073F7"/>
<path d="M270.801 0L352.05 115.045V118.928L268.058 0H270.801Z" fill="#A073F7"/>
<path d="M273.532 0L352.05 111.174V115.045L270.802 0H273.532Z" fill="#A073F7"/>
<path d="M276.275 0L352.05 107.291V111.174L273.532 0H276.275Z" fill="#A073F7"/>
<path d="M279.019 0L352.05 103.408V107.291L276.276 0H279.019Z" fill="#A073F7"/>
<path d="M281.75 0L352.05 99.5372V103.408L279.019 0H281.75Z" fill="#A073F7"/>
<path d="M284.494 0L352.05 95.6537V99.5372L281.75 0H284.494Z" fill="#A073F7"/>
<path d="M287.225 0L352.05 91.7702V95.6537L284.493 0H287.225Z" fill="#A073F7"/>
<path d="M352.05 91.7702L287.224 0H352.05V91.7702Z" fill="#A073F7"/>
</g>
</svg>
