<svg width="488" height="325" viewBox="0 0 488 325" fill="none" xmlns="http://www.w3.org/2000/svg">
<mask id="mask0_232_363" style="mask-type:luminance" maskUnits="userSpaceOnUse" x="107" y="35" width="275" height="255">
<path d="M314.004 134.215L283.861 93.9438L207.742 198.503L234.351 237.649L215.845 260.832L138.826 150.382H172.961L203.886 191.584L278.909 85.2437L243.492 35L172.843 133.775H107L214.954 288.577L244.314 251.78L271.051 289.018L305.91 239.655L382 133.305L314.004 134.215ZM349.411 150.353L298.815 220.992L280.847 198.14L314.229 150.823L349.411 150.353ZM251.478 233.284L228.049 198.826L284.047 121.914L299.618 142.72L260.139 198.698L288.803 235.085L270.933 260.382L251.478 233.284ZM187.406 141.956L243.394 63.6646L258.593 85.1948L203.475 163.369L187.406 141.956Z" fill="white"/>
</mask>
<g mask="url(#mask0_232_363)">
<path d="M187.406 161.394L188.806 163.37H187.406V161.394Z" fill="#A073F7"/>
<path d="M187.406 158.36L190.949 163.37H188.806L187.406 161.394V158.36Z" fill="#A073F7"/>
<path d="M187.406 155.326L193.092 163.37H190.949L187.406 158.359V155.326Z" fill="#A073F7"/>
<path d="M187.406 152.302L195.225 163.37H193.092L187.406 155.326V152.302Z" fill="#A073F7"/>
<path d="M187.406 149.268L197.369 163.37H195.225L187.406 152.302V149.268Z" fill="#A073F7"/>
<path d="M187.406 146.244L199.512 163.371H197.369L187.406 149.268V146.244Z" fill="#A073F7"/>
<path d="M187.406 143.21L201.645 163.371H199.512L187.406 146.244V143.21Z" fill="#A073F7"/>
<path d="M187.406 140.177L203.789 163.371H201.645L187.406 143.211V140.177Z" fill="#A073F7"/>
<path d="M187.406 137.153L205.922 163.371H203.789L187.406 140.177V137.153Z" fill="#A073F7"/>
<path d="M187.406 134.119L207.664 162.803L206.872 163.371H205.922L187.406 137.152V134.119Z" fill="#A073F7"/>
<path d="M187.406 131.095L209.093 161.796L207.664 162.803L187.406 134.119V131.095Z" fill="#A073F7"/>
<path d="M187.406 128.061L210.522 160.787L209.093 161.795L187.406 131.095V128.061Z" fill="#A073F7"/>
<path d="M187.406 125.027L211.951 159.779L210.522 160.787L187.406 128.061V125.027Z" fill="#A073F7"/>
<path d="M187.406 122.003L213.38 158.771L211.951 159.779L187.406 125.027V122.003Z" fill="#A073F7"/>
<path d="M187.406 118.97L214.808 157.763L213.38 158.771L187.406 122.004V118.97Z" fill="#A073F7"/>
<path d="M187.406 115.936L216.237 156.755L214.808 157.763L187.406 118.969V115.936Z" fill="#A073F7"/>
<path d="M187.406 112.912L217.666 155.747L216.237 156.755L187.406 115.936V112.912Z" fill="#A073F7"/>
<path d="M187.406 109.878L219.095 154.739L217.666 155.747L187.406 112.912V109.878Z" fill="#A073F7"/>
<path d="M187.406 106.854L220.524 153.731L219.095 154.739L187.406 109.878V106.854Z" fill="#A073F7"/>
<path d="M187.406 103.82L221.942 152.723L220.524 153.731L187.406 106.854V103.82Z" fill="#A073F7"/>
<path d="M187.406 100.833L187.426 100.814L223.372 151.713L221.942 152.721L187.406 103.818V100.833Z" fill="#A073F7"/>
<path d="M189.36 99.6863L187.923 100.702L224.063 151.797L225.5 150.781L189.36 99.6863Z" fill="#A073F7"/>
<path d="M190.285 98.812L188.854 99.8225L224.798 150.72L226.229 149.71L190.285 98.812Z" fill="#A073F7"/>
<path d="M192.218 97.6597L190.781 98.6757L226.921 149.77L228.358 148.754L192.218 97.6597Z" fill="#A073F7"/>
<path d="M193.149 96.7865L191.718 97.797L227.662 148.695L229.093 147.685L193.149 96.7865Z" fill="#A073F7"/>
<path d="M194.577 95.777L193.146 96.7875L229.09 147.685L230.521 146.675L194.577 95.777Z" fill="#A073F7"/>
<path d="M196.512 94.611L195.076 95.627L231.216 146.722L232.652 145.706L196.512 94.611Z" fill="#A073F7"/>
<path d="M197.431 93.7626L196 94.7731L231.944 145.671L233.376 144.661L197.431 93.7626Z" fill="#A073F7"/>
<path d="M199.364 92.5645L197.928 93.5805L234.068 144.675L235.505 143.659L199.364 92.5645Z" fill="#A073F7"/>
<path d="M200.281 91.7422L198.85 92.7527L234.794 143.65L236.225 142.64L200.281 91.7422Z" fill="#A073F7"/>
<path d="M202.232 90.5353L200.795 91.5508L236.936 142.645L238.372 141.629L202.232 90.5353Z" fill="#A073F7"/>
<path d="M203.135 89.7241L201.705 90.7346L237.649 141.633L239.08 140.622L203.135 89.7241Z" fill="#A073F7"/>
<path d="M204.563 88.7133L203.132 89.7237L239.076 140.622L240.507 139.611L204.563 88.7133Z" fill="#A073F7"/>
<path d="M206.51 87.4941L205.073 88.5102L241.213 139.605L242.65 138.589L206.51 87.4941Z" fill="#A073F7"/>
<path d="M207.418 86.7015L205.988 87.712L241.932 138.61L243.363 137.599L207.418 86.7015Z" fill="#A073F7"/>
<path d="M209.366 85.4551L207.93 86.4708L244.07 137.565L245.506 136.549L209.366 85.4551Z" fill="#A073F7"/>
<path d="M210.282 84.686L208.851 85.6966L244.796 136.595L246.226 135.584L210.282 84.686Z" fill="#A073F7"/>
<path d="M212.234 83.4282L210.797 84.4442L246.937 135.539L248.374 134.523L212.234 83.4282Z" fill="#A073F7"/>
<path d="M213.136 82.6642L211.706 83.6747L247.65 134.572L249.081 133.562L213.136 82.6642Z" fill="#A073F7"/>
<path d="M215.091 81.3992L213.655 82.4152L249.795 133.51L251.232 132.494L215.091 81.3992Z" fill="#A073F7"/>
<path d="M215.984 80.6549L214.553 81.6654L250.498 132.563L251.929 131.553L215.984 80.6549Z" fill="#A073F7"/>
<path d="M217.41 79.6454L215.979 80.6559L251.924 131.554L253.355 130.543L217.41 79.6454Z" fill="#A073F7"/>
<path d="M219.38 78.3479L217.943 79.3639L254.083 130.458L255.52 129.442L219.38 78.3479Z" fill="#A073F7"/>
<path d="M220.276 77.631L218.845 78.6415L254.789 129.539L256.22 128.529L220.276 77.631Z" fill="#A073F7"/>
<path d="M222.236 76.3187L220.799 77.3347L256.939 128.429L258.376 127.413L222.236 76.3187Z" fill="#A073F7"/>
<path d="M221.697 76.6136L223.126 75.6056L258.592 125.83V126.837L257.643 127.513L221.697 76.6136Z" fill="#A073F7"/>
<path d="M223.126 75.6039L224.556 74.5959L258.593 122.795V125.828L223.126 75.6039Z" fill="#A073F7"/>
<path d="M224.555 74.5969L225.984 73.5889L258.593 119.762V122.795L224.555 74.5969Z" fill="#A073F7"/>
<path d="M225.984 73.5897L227.403 72.5817L258.593 116.738V119.762L225.984 73.5897Z" fill="#A073F7"/>
<path d="M227.403 72.58L228.832 71.572L258.592 113.703V116.737L227.403 72.58Z" fill="#A073F7"/>
<path d="M228.832 71.5729L230.26 70.5649L258.592 110.679V113.704L228.832 71.5729Z" fill="#A073F7"/>
<path d="M230.261 70.5657L231.69 69.5577L258.593 107.646V110.68L230.261 70.5657Z" fill="#A073F7"/>
<path d="M231.689 69.5561L233.118 68.5481L258.592 104.611V107.645L231.689 69.5561Z" fill="#A073F7"/>
<path d="M233.118 68.5491L234.547 67.541L258.593 101.588V104.612L233.118 68.5491Z" fill="#A073F7"/>
<path d="M234.547 67.5418L235.975 66.5338L258.592 98.5551V101.589L234.547 67.5418Z" fill="#A073F7"/>
<path d="M235.976 66.5323L237.405 65.5243L258.593 95.5294V98.5537L235.976 66.5323Z" fill="#A073F7"/>
<path d="M237.405 65.5251L238.833 64.5171L258.592 92.4968V95.5303L237.405 65.5251Z" fill="#A073F7"/>
<path d="M238.833 64.5179L240.008 63.686H240.38L258.593 89.4638V92.4973L238.833 64.5179Z" fill="#A073F7"/>
<path d="M242.523 63.686L258.593 86.4395V89.4638L240.38 63.686H242.523Z" fill="#A073F7"/>
<path d="M244.657 63.686L258.593 83.4058V86.4395L242.523 63.686H244.657Z" fill="#A073F7"/>
<path d="M246.8 63.686L258.593 80.3818V83.4058L244.657 63.686H246.8Z" fill="#A073F7"/>
<path d="M248.944 63.686L258.593 77.348V80.3817L246.8 63.686H248.944Z" fill="#A073F7"/>
<path d="M251.077 63.686L258.593 74.3142V77.348L248.943 63.686H251.077Z" fill="#A073F7"/>
<path d="M253.221 63.686L258.593 71.2902V74.3142L251.077 63.686H253.221Z" fill="#A073F7"/>
<path d="M255.364 63.686L258.593 68.2563V71.2902L253.22 63.686H255.364Z" fill="#A073F7"/>
<path d="M257.497 63.686L258.593 65.2323V68.2563L255.363 63.686H257.497Z" fill="#A073F7"/>
<path d="M258.592 65.2323L257.497 63.686H258.592V65.2323Z" fill="#A073F7"/>
<path d="M228.049 258.317L229.507 260.383H228.049V258.317Z" fill="#A073F7"/>
<path d="M228.049 255.283L231.651 260.382H229.507L228.049 258.317V255.283Z" fill="#A073F7"/>
<path d="M228.049 252.26L233.784 260.382H231.651L228.049 255.284V252.26Z" fill="#A073F7"/>
<path d="M228.049 249.226L235.927 260.382H233.784L228.049 252.259V249.226Z" fill="#A073F7"/>
<path d="M228.049 246.202L238.071 260.382H235.927L228.049 249.226V246.202Z" fill="#A073F7"/>
<path d="M228.049 243.168L240.204 260.382H238.071L228.049 246.202V243.168Z" fill="#A073F7"/>
<path d="M228.049 240.144L242.347 260.382H240.204L228.049 243.168V240.144Z" fill="#A073F7"/>
<path d="M228.049 237.11L244.491 260.382H242.347L228.049 240.144V237.11Z" fill="#A073F7"/>
<path d="M228.049 234.076L246.624 260.382H244.491L228.049 237.11V234.076Z" fill="#A073F7"/>
<path d="M228.049 231.052L248.768 260.383H246.624L228.049 234.077V231.052Z" fill="#A073F7"/>
<path d="M228.049 228.019L250.91 260.382H248.768L228.049 231.052V228.019Z" fill="#A073F7"/>
<path d="M228.049 224.985L253.044 260.383H250.91L228.049 228.019V224.985Z" fill="#A073F7"/>
<path d="M228.049 221.961L255.187 260.383H253.044L228.049 224.985V221.961Z" fill="#A073F7"/>
<path d="M228.049 218.927L257.33 260.383H255.187L228.049 221.961V218.927Z" fill="#A073F7"/>
<path d="M228.049 215.903L259.464 260.383H257.33L228.049 218.927V215.903Z" fill="#A073F7"/>
<path d="M228.049 212.869L261.607 260.383H259.464L228.049 215.903V212.869Z" fill="#A073F7"/>
<path d="M228.049 209.835L263.75 260.382H261.607L228.049 212.869V209.835Z" fill="#A073F7"/>
<path d="M228.049 206.812L265.884 260.383H263.75L228.049 209.836V206.812Z" fill="#A073F7"/>
<path d="M228.049 203.778L268.027 260.383H265.884L228.049 206.811V203.778Z" fill="#A073F7"/>
<path d="M228.049 200.754L270.171 260.383H268.027L228.049 203.778V200.754Z" fill="#A073F7"/>
<path d="M228.049 197.72L272.304 260.383H270.171L228.049 200.754V197.72Z" fill="#A073F7"/>
<path d="M228.049 194.686L274.408 260.334L274.33 260.383H272.304L228.049 197.72V194.686Z" fill="#A073F7"/>
<path d="M228.049 191.662L275.837 259.326L274.408 260.334L228.049 194.687V191.662Z" fill="#A073F7"/>
<path d="M228.049 188.628L277.266 258.318L275.837 259.326L228.049 191.662V188.628Z" fill="#A073F7"/>
<path d="M228.049 185.595L278.694 257.31L277.266 258.318L228.049 188.628V185.595Z" fill="#A073F7"/>
<path d="M228.049 182.571L280.123 256.302L278.694 257.31L228.049 185.595V182.571Z" fill="#A073F7"/>
<path d="M228.049 179.537L281.542 255.294L280.123 256.302L228.049 182.571V179.537Z" fill="#A073F7"/>
<path d="M228.049 176.513L282.971 254.286L281.542 255.294L228.049 179.537V176.513Z" fill="#A073F7"/>
<path d="M228.049 173.479L284.4 253.278L282.971 254.286L228.049 176.513V173.479Z" fill="#A073F7"/>
<path d="M228.049 170.455L285.829 252.26L284.4 253.278L228.049 173.479V170.455Z" fill="#A073F7"/>
<path d="M228.049 167.422L287.257 251.252L285.829 252.26L228.049 170.455V167.422Z" fill="#A073F7"/>
<path d="M228.049 164.388L288.686 250.244L287.257 251.252L228.049 167.421V164.388Z" fill="#A073F7"/>
<path d="M228.049 161.364L290.115 249.237L288.686 250.245L228.049 164.388V161.364Z" fill="#A073F7"/>
<path d="M228.049 159.063L228.392 158.819L291.544 248.228L290.115 249.236L228.049 161.363V159.063Z" fill="#A073F7"/>
<path d="M230.665 157.689L229.229 158.705L292.716 248.463L294.153 247.447L230.665 157.689Z" fill="#A073F7"/>
<path d="M231.249 156.803L229.817 157.814L292.962 247.227L294.393 246.216L231.249 156.803Z" fill="#A073F7"/>
<path d="M233.523 155.65L232.086 156.666L295.574 246.424L297.011 245.408L233.523 155.65Z" fill="#A073F7"/>
<path d="M234.112 154.791L232.682 155.802L295.825 245.215L297.256 244.205L234.112 154.791Z" fill="#A073F7"/>
<path d="M235.54 153.779L234.109 154.79L297.254 244.203L298.684 243.192L235.54 153.779Z" fill="#A073F7"/>
<path d="M235.536 153.779L236.965 152.771L299.618 241.495V242.523L298.678 243.188L235.536 153.779Z" fill="#A073F7"/>
<path d="M236.964 152.772L238.383 151.764L299.617 238.462V241.496L236.964 152.772Z" fill="#A073F7"/>
<path d="M238.383 151.762L239.812 150.754L299.617 235.426V238.46L238.383 151.762Z" fill="#A073F7"/>
<path d="M239.812 150.755L241.241 149.747L299.617 232.404V235.428L239.812 150.755Z" fill="#A073F7"/>
<path d="M241.241 149.748L242.67 148.74L299.618 229.371V232.404L241.241 149.748Z" fill="#A073F7"/>
<path d="M242.67 148.738L244.099 147.73L299.618 226.345V229.369L242.67 148.738Z" fill="#A073F7"/>
<path d="M244.099 147.731L245.527 146.723L299.617 223.312V226.346L244.099 147.731Z" fill="#A073F7"/>
<path d="M245.528 146.724L246.957 145.716L299.618 220.279V223.313L245.528 146.724Z" fill="#A073F7"/>
<path d="M246.957 145.715L248.385 144.706L299.617 217.254V220.278L246.957 145.715Z" fill="#A073F7"/>
<path d="M248.385 144.707L249.814 143.699L299.618 214.221V217.254L248.385 144.707Z" fill="#A073F7"/>
<path d="M249.814 143.7L251.233 142.692L299.618 211.197V214.221L249.814 143.7Z" fill="#A073F7"/>
<path d="M251.233 142.69L252.662 141.682L299.618 208.162V211.196L251.233 142.69Z" fill="#A073F7"/>
<path d="M252.662 141.683L254.091 140.675L299.618 205.129V208.163L252.662 141.683Z" fill="#A073F7"/>
<path d="M254.091 140.676L255.519 139.658L299.617 202.105V205.13L254.091 140.676Z" fill="#A073F7"/>
<path d="M255.52 139.657L256.949 138.659L299.618 199.071V202.105L255.52 139.657Z" fill="#A073F7"/>
<path d="M256.949 138.659L258.377 137.651L299.618 196.047V199.071L256.949 138.659Z" fill="#A073F7"/>
<path d="M258.377 137.652L259.807 136.634L299.618 193.014V196.048L258.377 137.652Z" fill="#A073F7"/>
<path d="M259.806 136.633L261.235 135.625L299.617 189.979V193.013L259.806 136.633Z" fill="#A073F7"/>
<path d="M261.235 135.625L262.664 134.618L299.617 186.955V189.98L261.235 135.625Z" fill="#A073F7"/>
<path d="M262.664 134.618L264.093 133.61L299.618 183.923V186.956L262.664 134.618Z" fill="#A073F7"/>
<path d="M264.093 133.609L265.512 132.601L299.618 180.887V183.921L264.093 133.609Z" fill="#A073F7"/>
<path d="M265.512 132.602L266.941 131.594L299.618 177.864V180.888L265.512 132.602Z" fill="#A073F7"/>
<path d="M266.941 131.592L268.37 130.584L299.618 174.828V177.862L266.941 131.592Z" fill="#A073F7"/>
<path d="M268.369 130.585L269.798 129.577L299.617 171.806V174.83L268.369 130.585Z" fill="#A073F7"/>
<path d="M269.798 129.578L271.227 128.57L299.617 168.773V171.806L269.798 129.578Z" fill="#A073F7"/>
<path d="M271.228 128.569L272.657 127.56L299.618 165.738V168.771L271.228 128.569Z" fill="#A073F7"/>
<path d="M272.656 127.561L274.084 126.553L299.617 162.714V165.738L272.656 127.561Z" fill="#A073F7"/>
<path d="M274.085 126.554L275.514 125.546L299.618 159.681V162.715L274.085 126.554Z" fill="#A073F7"/>
<path d="M275.514 125.544L276.942 124.536L299.617 156.656V159.68L275.514 125.544Z" fill="#A073F7"/>
<path d="M276.942 124.537L278.361 123.529L299.618 153.623V156.656L276.942 124.537Z" fill="#A073F7"/>
<path d="M278.361 123.53L279.79 122.522L299.618 150.59V153.623L278.361 123.53Z" fill="#A073F7"/>
<path d="M279.79 122.521L280.651 121.914H281.503L299.617 147.564V150.589L279.79 122.521Z" fill="#A073F7"/>
<path d="M283.647 121.914L299.618 144.531V147.564L281.503 121.914H283.647Z" fill="#A073F7"/>
<path d="M285.779 121.914L299.617 141.507V144.531L283.646 121.914H285.779Z" fill="#A073F7"/>
<path d="M287.923 121.914L299.618 138.473V141.507L285.78 121.914H287.923Z" fill="#A073F7"/>
<path d="M290.066 121.914L299.618 135.439V138.473L287.923 121.914H290.066Z" fill="#A073F7"/>
<path d="M292.2 121.914L299.618 132.415V135.439L290.066 121.914H292.2Z" fill="#A073F7"/>
<path d="M294.343 121.914L299.618 129.381V132.415L292.2 121.914H294.343Z" fill="#A073F7"/>
<path d="M296.486 121.914L299.618 126.347V129.381L294.343 121.914H296.486Z" fill="#A073F7"/>
<path d="M298.62 121.914L299.618 123.323V126.347L296.486 121.914H298.62Z" fill="#A073F7"/>
<path d="M299.618 123.323L298.62 121.914H299.618V123.323Z" fill="#A073F7"/>
<path d="M280.847 220.974L280.867 220.994H280.847V220.974Z" fill="#A073F7"/>
<path d="M280.847 217.95L283 220.993H280.866L280.847 220.974V217.95Z" fill="#A073F7"/>
<path d="M280.847 214.916L285.143 220.993H283L280.847 217.949V214.916Z" fill="#A073F7"/>
<path d="M280.847 211.882L287.287 220.993H285.143L280.847 214.916V211.882Z" fill="#A073F7"/>
<path d="M280.847 208.858L289.42 220.993H287.287L280.847 211.882V208.858Z" fill="#A073F7"/>
<path d="M280.847 205.824L291.563 220.993H289.42L280.847 208.858V205.824Z" fill="#A073F7"/>
<path d="M280.847 202.801L293.707 220.994H291.563L280.847 205.824V202.801Z" fill="#A073F7"/>
<path d="M280.847 199.767L295.84 220.994H293.707L280.847 202.801V199.767Z" fill="#A073F7"/>
<path d="M280.847 196.733L297.983 220.994H295.84L280.847 199.766V196.733Z" fill="#A073F7"/>
<path d="M280.847 193.709L300.116 220.994H297.983L280.847 196.733V193.709Z" fill="#A073F7"/>
<path d="M280.847 190.675L302.25 220.983L302.241 220.994H300.116L280.847 193.709V190.675Z" fill="#A073F7"/>
<path d="M280.847 187.641L303.679 219.976L302.25 220.984L280.847 190.675V187.641Z" fill="#A073F7"/>
<path d="M280.847 184.617L305.108 218.968L303.679 219.976L280.847 187.641V184.617Z" fill="#A073F7"/>
<path d="M280.847 181.583L306.536 217.96L305.108 218.968L280.847 184.617V181.583Z" fill="#A073F7"/>
<path d="M280.847 178.56L307.966 216.952L306.536 217.96L280.847 181.583V178.56Z" fill="#A073F7"/>
<path d="M280.847 175.526L309.394 215.944L307.966 216.952L280.847 178.56V175.526Z" fill="#A073F7"/>
<path d="M280.847 172.492L310.823 214.936L309.394 215.944L280.847 175.526V172.492Z" fill="#A073F7"/>
<path d="M280.847 172.001L282.041 171.16L312.252 213.927L310.823 214.935L280.847 172.491V172.001Z" fill="#A073F7"/>
<path d="M283.477 170.154L282.046 171.164L312.249 213.932L313.68 212.922L283.477 170.154Z" fill="#A073F7"/>
<path d="M284.905 169.142L283.474 170.152L313.677 212.92L315.108 211.91L284.905 169.142Z" fill="#A073F7"/>
<path d="M286.332 168.13L284.9 169.14L315.104 211.908L316.535 210.898L286.332 168.13Z" fill="#A073F7"/>
<path d="M287.759 167.128L286.328 168.138L316.531 210.906L317.962 209.895L287.759 167.128Z" fill="#A073F7"/>
<path d="M289.187 166.118L287.756 167.129L317.959 209.896L319.39 208.886L289.187 166.118Z" fill="#A073F7"/>
<path d="M290.614 165.106L289.183 166.116L319.386 208.884L320.817 207.874L290.614 165.106Z" fill="#A073F7"/>
<path d="M292.05 164.104L290.62 165.114L320.822 207.882L322.253 206.872L292.05 164.104Z" fill="#A073F7"/>
<path d="M293.471 163.1L292.04 164.111L322.243 206.879L323.673 205.868L293.471 163.1Z" fill="#A073F7"/>
<path d="M294.897 162.087L293.466 163.098L323.669 205.866L325.1 204.855L294.897 162.087Z" fill="#A073F7"/>
<path d="M296.324 161.075L294.894 162.085L325.096 204.853L326.527 203.843L296.324 161.075Z" fill="#A073F7"/>
<path d="M297.752 160.074L296.321 161.084L326.524 203.852L327.955 202.842L297.752 160.074Z" fill="#A073F7"/>
<path d="M299.18 159.061L297.749 160.072L327.952 202.839L329.383 201.828L299.18 159.061Z" fill="#A073F7"/>
<path d="M300.616 158.051L299.185 159.061L329.388 201.829L330.819 200.819L300.616 158.051Z" fill="#A073F7"/>
<path d="M302.044 157.049L300.613 158.06L330.816 200.828L332.247 199.817L302.044 157.049Z" fill="#A073F7"/>
<path d="M303.472 156.037L302.041 157.047L332.244 199.815L333.674 198.805L303.472 156.037Z" fill="#A073F7"/>
<path d="M304.897 155.025L303.467 156.035L333.669 198.803L335.101 197.792L304.897 155.025Z" fill="#A073F7"/>
<path d="M306.318 154.03L304.887 155.04L335.09 197.808L336.521 196.798L306.318 154.03Z" fill="#A073F7"/>
<path d="M307.744 153.018L306.313 154.028L336.516 196.796L337.947 195.786L307.744 153.018Z" fill="#A073F7"/>
<path d="M309.171 152.007L307.741 153.017L337.943 195.785L339.375 194.775L309.171 152.007Z" fill="#A073F7"/>
<path d="M310.61 150.996L309.179 152.006L339.382 194.775L340.813 193.764L310.61 150.996Z" fill="#A073F7"/>
<path d="M310.597 150.991L311.508 150.355H312.29L342.227 192.749L340.798 193.758L310.597 150.991Z" fill="#A073F7"/>
<path d="M314.433 150.355L343.656 191.741L342.227 192.749L312.29 150.355H314.433Z" fill="#A073F7"/>
<path d="M316.567 150.355L345.085 190.733L343.656 191.741L314.434 150.355H316.567Z" fill="#A073F7"/>
<path d="M318.711 150.355L346.514 189.725L345.085 190.733L316.567 150.355H318.711Z" fill="#A073F7"/>
<path d="M320.853 150.355L347.942 188.717L346.514 189.725L318.71 150.355H320.853Z" fill="#A073F7"/>
<path d="M322.987 150.355L349.372 187.709L347.942 188.717L320.854 150.355H322.987Z" fill="#A073F7"/>
<path d="M325.13 150.355L349.41 184.734V187.68L349.371 187.709L322.987 150.355H325.13Z" fill="#A073F7"/>
<path d="M327.273 150.355L349.41 181.7V184.734L325.13 150.355H327.273Z" fill="#A073F7"/>
<path d="M329.407 150.355L349.411 178.677V181.7L327.273 150.355H329.407Z" fill="#A073F7"/>
<path d="M331.55 150.355L349.411 175.643V178.677L329.407 150.355H331.55Z" fill="#A073F7"/>
<path d="M333.684 150.355L349.411 172.619V175.643L331.55 150.355H333.684Z" fill="#A073F7"/>
<path d="M335.827 150.355L349.411 169.585V172.619L333.684 150.355H335.827Z" fill="#A073F7"/>
<path d="M337.971 150.355L349.411 166.551V169.585L335.827 150.355H337.971Z" fill="#A073F7"/>
<path d="M340.103 150.355L349.411 163.527V166.551L337.97 150.355H340.103Z" fill="#A073F7"/>
<path d="M342.246 150.355L349.41 160.493V163.527L340.103 150.355H342.246Z" fill="#A073F7"/>
<path d="M344.389 150.355L349.41 157.469V160.493L342.247 150.355H344.389Z" fill="#A073F7"/>
<path d="M346.523 150.355L349.41 154.435V157.469L344.39 150.355H346.523Z" fill="#A073F7"/>
<path d="M348.668 150.355L349.412 151.402V154.435L346.524 150.355H348.668Z" fill="#A073F7"/>
<path d="M349.41 151.402L348.667 150.355H349.41V151.402Z" fill="#A073F7"/>
<path d="M107 129.009L108.262 128.108L221.912 289.018H107V129.009Z" fill="#A073F7"/>
<path d="M108.263 128.109L109.692 127.101L224.046 289.019H221.913L108.263 128.109Z" fill="#A073F7"/>
<path d="M109.691 127.102L111.12 126.094L226.19 289.019H224.046L109.691 127.102Z" fill="#A073F7"/>
<path d="M111.12 126.092L112.549 125.084L228.323 289.018H226.189L111.12 126.092Z" fill="#A073F7"/>
<path d="M112.549 125.085L113.978 124.077L230.466 289.019H228.323L112.549 125.085Z" fill="#A073F7"/>
<path d="M113.978 124.079L115.407 123.07L232.61 289.02H230.466L113.978 124.079Z" fill="#A073F7"/>
<path d="M115.407 123.068L116.836 122.061L234.743 289.018H232.609L115.407 123.068Z" fill="#A073F7"/>
<path d="M116.836 122.061L118.265 121.053L236.887 289.019H234.743L116.836 122.061Z" fill="#A073F7"/>
<path d="M118.265 121.054L119.693 120.046L239.03 289.02H236.886L118.265 121.054Z" fill="#A073F7"/>
<path d="M119.693 120.045L121.122 119.037L241.163 289.018H239.03L119.693 120.045Z" fill="#A073F7"/>
<path d="M121.123 119.037L122.542 118.03L243.307 289.018H241.163L121.123 119.037Z" fill="#A073F7"/>
<path d="M122.541 118.03L123.97 117.022L245.449 289.02H243.306L122.541 118.03Z" fill="#A073F7"/>
<path d="M123.97 117.021L125.399 116.013L247.593 289.018H245.45L123.97 117.021Z" fill="#A073F7"/>
<path d="M125.399 116.014L126.828 115.006L249.726 289.019H247.593L125.399 116.014Z" fill="#A073F7"/>
<path d="M126.828 115.004L128.256 113.996L251.869 289.017H249.726L126.828 115.004Z" fill="#A073F7"/>
<path d="M128.257 113.997L129.686 112.989L254.013 289.018H251.87L128.257 113.997Z" fill="#A073F7"/>
<path d="M129.686 112.99L131.114 111.982L256.147 289.019H254.013L129.686 112.99Z" fill="#A073F7"/>
<path d="M131.114 111.98L132.543 110.962L258.289 289.017H256.146L131.114 111.98Z" fill="#A073F7"/>
<path d="M132.543 110.963L133.972 109.955L260.433 289.018H258.289L132.543 110.963Z" fill="#A073F7"/>
<path d="M133.972 109.956L135.401 108.948L262.567 289.019H260.433L133.972 109.956Z" fill="#A073F7"/>
<path d="M135.401 108.946L136.82 107.938L264.709 289.017H262.567L135.401 108.946Z" fill="#A073F7"/>
<path d="M136.82 107.939L138.249 106.931L266.843 289.018H264.709L136.82 107.939Z" fill="#A073F7"/>
<path d="M138.249 106.933L139.677 105.924L268.986 289.019H266.843L138.249 106.933Z" fill="#A073F7"/>
<path d="M139.677 105.922L141.106 104.914L271.129 289.018H268.986L139.677 105.922Z" fill="#A073F7"/>
<path d="M141.106 104.915L142.535 103.907L273.263 289.018H271.13L141.106 104.915Z" fill="#A073F7"/>
<path d="M142.536 103.908L143.964 102.9L275.083 288.559L274.447 289.019H273.263L142.536 103.908Z" fill="#A073F7"/>
<path d="M145.389 101.892L143.958 102.902L275.079 288.571L276.51 287.561L145.389 101.892Z" fill="#A073F7"/>
<path d="M147.302 100.694L145.865 101.71L277.7 288.096L279.136 287.08L147.302 100.694Z" fill="#A073F7"/>
<path d="M148.245 99.875L146.814 100.886L277.935 286.555L279.366 285.544L148.245 99.875Z" fill="#A073F7"/>
<path d="M149.673 98.8628L148.242 99.8733L279.362 285.542L280.793 284.532L149.673 98.8628Z" fill="#A073F7"/>
<path d="M151.58 97.6523L150.144 98.6684L281.978 285.055L283.414 284.039L151.58 97.6523Z" fill="#A073F7"/>
<path d="M152.527 96.851L151.096 97.8614L282.217 283.531L283.648 282.52L152.527 96.851Z" fill="#A073F7"/>
<path d="M154.437 95.6132L153.001 96.6292L284.835 283.016L286.272 282L154.437 95.6132Z" fill="#A073F7"/>
<path d="M155.392 94.8367L153.961 95.8477L285.082 281.516L286.513 280.506L155.392 94.8367Z" fill="#A073F7"/>
<path d="M156.819 93.8247L155.388 94.8352L286.509 280.504L287.939 279.494L156.819 93.8247Z" fill="#A073F7"/>
<path d="M158.246 92.8151L156.815 93.8255L287.936 279.495L289.366 278.484L158.246 92.8151Z" fill="#A073F7"/>
<path d="M159.674 91.8041L158.243 92.8146L289.364 278.483L290.794 277.473L159.674 91.8041Z" fill="#A073F7"/>
<path d="M161.591 90.5377L160.154 91.5538L291.988 277.94L293.425 276.924L161.591 90.5377Z" fill="#A073F7"/>
<path d="M162.52 89.7974L161.089 90.8078L292.21 276.476L293.64 275.466L162.52 89.7974Z" fill="#A073F7"/>
<path d="M163.957 88.7841L162.527 89.7945L293.647 275.464L295.078 274.453L163.957 88.7841Z" fill="#A073F7"/>
<path d="M165.384 87.7831L163.953 88.7936L295.074 274.462L296.505 273.452L165.384 87.7831Z" fill="#A073F7"/>
<path d="M167.307 86.4771L165.871 87.4931L297.705 273.88L299.141 272.864L167.307 86.4771Z" fill="#A073F7"/>
<path d="M168.239 85.7601L166.809 86.7705L297.929 272.44L299.36 271.429L168.239 85.7601Z" fill="#A073F7"/>
<path d="M169.666 84.7479L168.236 85.7585L299.356 271.427L300.787 270.417L169.666 84.7479Z" fill="#A073F7"/>
<path d="M171.592 83.4282L170.156 84.4442L301.99 270.831L303.427 269.815L171.592 83.4282Z" fill="#A073F7"/>
<path d="M172.531 82.7338L171.1 83.7443L302.22 269.413L303.652 268.403L172.531 82.7338Z" fill="#A073F7"/>
<path d="M174.46 81.3892L173.023 82.4052L304.858 268.792L306.294 267.776L174.46 81.3892Z" fill="#A073F7"/>
<path d="M175.377 80.7268L173.946 81.7373L305.067 267.406L306.498 266.396L175.377 80.7268Z" fill="#A073F7"/>
<path d="M177.309 79.3674L175.873 80.3835L307.707 266.77L309.143 265.754L177.309 79.3674Z" fill="#A073F7"/>
<path d="M178.231 78.7026L176.8 79.7132L307.921 265.382L309.352 264.371L178.231 78.7026Z" fill="#A073F7"/>
<path d="M180.167 77.3284L178.73 78.3444L310.565 264.731L312.001 263.715L180.167 77.3284Z" fill="#A073F7"/>
<path d="M181.086 76.6909L179.655 77.7014L310.776 263.37L312.207 262.36L181.086 76.6909Z" fill="#A073F7"/>
<path d="M182.524 75.6787L181.093 76.6892L312.214 262.358L313.644 261.348L182.524 75.6787Z" fill="#A073F7"/>
<path d="M184.456 74.2722L183.02 75.2883L314.854 261.675L316.29 260.659L184.456 74.2722Z" fill="#A073F7"/>
<path d="M185.372 73.657L183.941 74.6676L315.061 260.337L316.492 259.326L185.372 73.657Z" fill="#A073F7"/>
<path d="M187.313 72.2455L185.877 73.2615L317.711 259.648L319.148 258.632L187.313 72.2455Z" fill="#A073F7"/>
<path d="M188.22 71.6403L186.789 72.6508L317.909 258.32L319.34 257.309L188.22 71.6403Z" fill="#A073F7"/>
<path d="M190.162 70.2115L188.726 71.2276L320.56 257.614L321.997 256.598L190.162 70.2115Z" fill="#A073F7"/>
<path d="M191.083 69.626L189.652 70.6365L320.773 256.305L322.204 255.295L191.083 69.626Z" fill="#A073F7"/>
<path d="M192.511 68.6163L191.08 69.6269L322.201 255.296L323.632 254.285L192.511 68.6163Z" fill="#A073F7"/>
<path d="M194.458 67.1652L193.022 68.1812L324.856 254.568L326.293 253.552L194.458 67.1652Z" fill="#A073F7"/>
<path d="M195.365 66.6022L193.934 67.6127L325.055 253.282L326.486 252.271L195.365 66.6022Z" fill="#A073F7"/>
<path d="M196.793 65.59L195.362 66.6005L326.483 252.27L327.913 251.259L196.793 65.59Z" fill="#A073F7"/>
<path d="M198.22 64.5803L196.789 65.5908L327.91 251.26L329.341 250.249L198.22 64.5803Z" fill="#A073F7"/>
<path d="M199.657 63.5782L198.226 64.5888L329.346 250.258L330.778 249.247L199.657 63.5782Z" fill="#A073F7"/>
<path d="M201.076 62.571L199.645 63.5816L330.765 249.25L332.197 248.24L201.076 62.571Z" fill="#A073F7"/>
<path d="M203.031 61.0752L201.595 62.0912L333.429 248.478L334.866 247.462L203.031 61.0752Z" fill="#A073F7"/>
<path d="M203.931 60.5493L202.5 61.5599L333.62 247.229L335.052 246.218L203.931 60.5493Z" fill="#A073F7"/>
<path d="M205.358 59.5471L203.927 60.5577L335.048 246.226L336.479 245.216L205.358 59.5471Z" fill="#A073F7"/>
<path d="M206.785 58.535L205.354 59.5456L336.474 245.214L337.905 244.204L206.785 58.535Z" fill="#A073F7"/>
<path d="M208.222 57.5254L206.792 58.5359L337.912 244.205L339.343 243.194L208.222 57.5254Z" fill="#A073F7"/>
<path d="M210.185 55.9973L208.749 57.0133L340.583 243.4L342.019 242.384L210.185 55.9973Z" fill="#A073F7"/>
<path d="M211.077 55.5112L209.646 56.5218L340.767 242.191L342.198 241.18L211.077 55.5112Z" fill="#A073F7"/>
<path d="M212.503 54.499L211.073 55.5096L342.193 241.179L343.624 240.168L212.503 54.499Z" fill="#A073F7"/>
<path d="M213.924 53.4944L212.493 54.505L343.613 240.174L345.044 239.163L213.924 53.4944Z" fill="#A073F7"/>
<path d="M215.35 52.4922L213.919 53.5027L345.04 239.171L346.471 238.161L215.35 52.4922Z" fill="#A073F7"/>
<path d="M217.329 50.917L215.893 51.9331L347.727 238.319L349.163 237.303L217.329 50.917Z" fill="#A073F7"/>
<path d="M218.216 50.468L216.785 51.4786L347.906 237.147L349.336 236.137L218.216 50.468Z" fill="#A073F7"/>
<path d="M220.187 48.8903L218.75 49.9063L350.585 236.293L352.021 235.277L220.187 48.8903Z" fill="#A073F7"/>
<path d="M221.069 48.4562L219.639 49.4667L350.759 235.136L352.19 234.125L221.069 48.4562Z" fill="#A073F7"/>
<path d="M223.044 46.8512L221.608 47.8672L353.442 234.254L354.879 233.238L223.044 46.8512Z" fill="#A073F7"/>
<path d="M223.918 46.4246L222.488 47.4351L353.608 233.104L355.039 232.093L223.918 46.4246Z" fill="#A073F7"/>
<path d="M225.356 45.4224L223.925 46.4329L355.046 232.102L356.476 231.091L225.356 45.4224Z" fill="#A073F7"/>
<path d="M226.783 44.4128L225.352 45.4234L356.472 231.092L357.903 230.082L226.783 44.4128Z" fill="#A073F7"/>
<path d="M228.203 43.4056L226.771 44.4162L357.892 230.085L359.323 229.075L228.203 43.4056Z" fill="#A073F7"/>
<path d="M230.184 41.7734L228.748 42.7895L360.582 229.176L362.018 228.16L230.184 41.7734Z" fill="#A073F7"/>
<path d="M231.057 41.3914L229.625 42.4019L360.746 228.071L362.177 227.06L231.057 41.3914Z" fill="#A073F7"/>
<path d="M233.041 39.7343L231.604 40.7503L363.438 227.137L364.875 226.12L233.041 39.7343Z" fill="#A073F7"/>
<path d="M233.921 39.3696L232.491 40.3801L363.611 226.049L365.042 225.038L233.921 39.3696Z" fill="#A073F7"/>
<path d="M235.908 37.7051L234.472 38.7211L366.306 225.107L367.743 224.091L235.908 37.7051Z" fill="#A073F7"/>
<path d="M236.776 37.3553L235.345 38.3659L366.466 224.035L367.897 223.024L236.776 37.3553Z" fill="#A073F7"/>
<path d="M238.203 36.3457L236.772 37.3562L367.893 223.025L369.324 222.015L238.203 36.3457Z" fill="#A073F7"/>
<path d="M240.193 34.6589L238.757 35.675L370.591 222.061L372.028 221.045L240.193 34.6589Z" fill="#A073F7"/>
<path d="M239.626 35.3425L240.106 35H241.525L372.174 219.993L370.746 221.002L239.626 35.3425Z" fill="#A073F7"/>
<path d="M243.659 35L373.603 218.985L372.175 219.993L241.525 35H243.659Z" fill="#A073F7"/>
<path d="M245.802 35L375.033 217.978L373.603 218.985L243.659 35H245.802Z" fill="#A073F7"/>
<path d="M247.945 35L376.461 216.97L375.032 217.978L245.802 35H247.945Z" fill="#A073F7"/>
<path d="M250.078 35L377.89 215.962L376.46 216.97L247.945 35H250.078Z" fill="#A073F7"/>
<path d="M252.222 35L379.309 214.954L377.889 215.962L250.078 35H252.222Z" fill="#A073F7"/>
<path d="M254.365 35L380.737 213.946L379.309 214.954L252.222 35H254.365Z" fill="#A073F7"/>
<path d="M256.498 35L382.039 212.752V213.026L380.737 213.946L254.365 35H256.498Z" fill="#A073F7"/>
<path d="M258.641 35L382.039 209.718V212.752L256.499 35H258.641Z" fill="#A073F7"/>
<path d="M260.785 35L382.039 206.694V209.718L258.642 35H260.785Z" fill="#A073F7"/>
<path d="M262.919 35L382.039 203.66V206.694L260.785 35H262.919Z" fill="#A073F7"/>
<path d="M265.061 35L382.039 200.626V203.66L262.918 35H265.061Z" fill="#A073F7"/>
<path d="M267.205 35L382.039 197.602V200.626L265.062 35H267.205Z" fill="#A073F7"/>
<path d="M269.338 35L382.039 194.568V197.602L267.205 35H269.338Z" fill="#A073F7"/>
<path d="M271.482 35L382.039 191.544V194.568L269.338 35H271.482Z" fill="#A073F7"/>
<path d="M273.624 35L382.039 188.51V191.544L271.481 35H273.624Z" fill="#A073F7"/>
<path d="M275.758 35L382.039 185.477V188.51L273.625 35H275.758Z" fill="#A073F7"/>
<path d="M277.901 35L382.039 182.453V185.477L275.758 35H277.901Z" fill="#A073F7"/>
<path d="M280.044 35L382.039 179.419V182.453L277.901 35H280.044Z" fill="#A073F7"/>
<path d="M282.178 35L382.039 176.385V179.419L280.044 35H282.178Z" fill="#A073F7"/>
<path d="M284.321 35L382.039 173.361V176.385L282.178 35H284.321Z" fill="#A073F7"/>
<path d="M286.465 35L382.039 170.327V173.361L284.321 35H286.465Z" fill="#A073F7"/>
<path d="M288.598 35L382.039 167.303V170.327L286.464 35H288.598Z" fill="#A073F7"/>
<path d="M290.741 35L382.039 164.27V167.303L288.598 35H290.741Z" fill="#A073F7"/>
<path d="M292.885 35L382.039 161.236V164.27L290.741 35H292.885Z" fill="#A073F7"/>
<path d="M295.018 35L382.039 158.212V161.236L292.884 35H295.018Z" fill="#A073F7"/>
<path d="M297.161 35L382.039 155.178V158.212L295.018 35H297.161Z" fill="#A073F7"/>
<path d="M299.304 35L382.039 152.154V155.178L297.161 35H299.304Z" fill="#A073F7"/>
<path d="M301.438 35L382.039 149.12V152.154L299.304 35H301.438Z" fill="#A073F7"/>
<path d="M303.581 35L382.039 146.086V149.12L301.438 35H303.581Z" fill="#A073F7"/>
<path d="M305.724 35L382.039 143.062V146.086L303.581 35H305.724Z" fill="#A073F7"/>
<path d="M307.858 35L382.039 140.028V143.062L305.724 35H307.858Z" fill="#A073F7"/>
<path d="M310.001 35L382.039 136.995V140.028L307.857 35H310.001Z" fill="#A073F7"/>
<path d="M312.144 35L382.039 133.97V136.995L310 35H312.144Z" fill="#A073F7"/>
<path d="M314.277 35L382.039 130.937V133.97L312.144 35H314.277Z" fill="#A073F7"/>
<path d="M316.421 35L382.039 127.913V130.937L314.277 35H316.421Z" fill="#A073F7"/>
<path d="M318.564 35L382.039 124.879V127.913L316.421 35H318.564Z" fill="#A073F7"/>
<path d="M320.697 35L382.039 121.855V124.879L318.564 35H320.697Z" fill="#A073F7"/>
<path d="M322.84 35L382.039 118.821V121.855L320.697 35H322.84Z" fill="#A073F7"/>
<path d="M324.983 35L382.039 115.787V118.821L322.84 35H324.983Z" fill="#A073F7"/>
<path d="M327.118 35L382.039 112.763V115.787L324.984 35H327.118Z" fill="#A073F7"/>
<path d="M329.261 35L382.039 109.729V112.763L327.117 35H329.261Z" fill="#A073F7"/>
<path d="M331.394 35L382.039 106.695V109.729L329.26 35H331.394Z" fill="#A073F7"/>
<path d="M382.039 106.695L331.394 35H382.039V106.695Z" fill="#A073F7"/>
</g>
</svg>
